<svg width="16" height="17" viewBox="0 0 16 17" fill="none" xmlns="http://www.w3.org/2000/svg">
<path d="M8 9.04297C7.50555 9.04297 7.0222 8.89635 6.61108 8.62164C6.19995 8.34694 5.87952 7.95649 5.6903 7.49968C5.50108 7.04286 5.45157 6.5402 5.54804 6.05524C5.6445 5.57029 5.8826 5.12483 6.23223 4.7752C6.58187 4.42557 7.02732 4.18747 7.51228 4.09101C7.99723 3.99454 8.4999 4.04405 8.95671 4.23327C9.41353 4.42249 9.80397 4.74292 10.0787 5.15404C10.3534 5.56517 10.5 6.04852 10.5 6.54297C10.4992 7.20577 10.2356 7.84119 9.76689 8.30986C9.29822 8.77853 8.6628 9.04218 8 9.04297ZM8 5.04297C7.70333 5.04297 7.41332 5.13094 7.16665 5.29577C6.91997 5.46059 6.72771 5.69486 6.61418 5.96894C6.50065 6.24303 6.47095 6.54463 6.52882 6.83561C6.5867 7.12658 6.72956 7.39385 6.93934 7.60363C7.14912 7.81341 7.41639 7.95627 7.70737 8.01415C7.99834 8.07203 8.29994 8.04232 8.57403 7.92879C8.84812 7.81526 9.08238 7.623 9.24721 7.37633C9.41203 7.12965 9.5 6.83964 9.5 6.54297C9.4996 6.14527 9.34144 5.76397 9.06022 5.48275C8.779 5.20153 8.3977 5.04337 8 5.04297Z" fill="#7B7B7B"/>
<path d="M8.00001 15.043L3.78201 10.0685C3.7234 9.99377 3.66539 9.91861 3.60801 9.84297C2.8875 8.89386 2.49826 7.73458 2.50001 6.54297C2.50001 5.08428 3.07947 3.68533 4.11092 2.65388C5.14237 1.62243 6.54132 1.04297 8.00001 1.04297C9.4587 1.04297 10.8576 1.62243 11.8891 2.65388C12.9205 3.68533 13.5 5.08428 13.5 6.54297C13.5018 7.73404 13.1127 8.89279 12.3925 9.84147L12.392 9.84297C12.392 9.84297 12.242 10.04 12.2195 10.0665L8.00001 15.043ZM4.40601 9.24047C4.40701 9.24047 4.52301 9.39447 4.54951 9.42747L8.00001 13.497L11.455 9.42197C11.477 9.39447 11.594 9.23947 11.5945 9.23897C12.1831 8.46353 12.5012 7.51648 12.5 6.54297C12.5 5.34949 12.0259 4.2049 11.182 3.36099C10.3381 2.51707 9.19348 2.04297 8.00001 2.04297C6.80653 2.04297 5.66194 2.51707 4.81803 3.36099C3.97411 4.2049 3.50001 5.34949 3.50001 6.54297C3.49896 7.51709 3.81689 8.46467 4.40601 9.24047Z" fill="#7B7B7B"/>
</svg>
