<svg width="201" height="200" viewBox="0 0 201 200" fill="none" xmlns="http://www.w3.org/2000/svg">
<g clip-path="url(#clip0_27_8860)">
<path fill-rule="evenodd" clip-rule="evenodd" d="M126.276 53.887C126.703 54.9473 127.077 55.8569 127.277 56.3358C128.505 59.2447 130.528 67.1137 134.023 71.5304C136.688 74.9013 140.216 76.2786 144.65 73.2664C148.68 70.5286 150.597 65.5819 150.895 59.7804C151.537 47.2945 144.986 30.6898 141.499 26.588C141.119 26.1405 140.341 26.2045 139.76 26.7327C139.181 27.2585 139.017 28.0473 139.398 28.4948C142.743 32.4322 149.003 48.3844 148.387 60.371C148.145 65.0563 146.941 69.1124 143.685 71.3235C140.473 73.507 138.093 72.1099 136.161 69.6662C132.758 65.3688 130.835 57.6873 129.641 54.8538C128.892 53.0782 126.257 46.1659 125.866 45.6722C125.376 45.0535 124.659 45.3928 124.427 45.52C124.247 45.6184 123.367 46.1598 123.512 47.2004C125.577 62.0428 117.565 89.3451 102.564 111.873C87.6953 134.203 65.8738 151.872 40.0099 147.635C39.3811 147.533 38.6328 148.004 38.3383 148.686C38.0457 149.369 38.3175 150.007 38.9462 150.109C66.0462 154.547 88.964 136.188 104.541 112.795C117.67 93.08 125.521 69.8109 126.276 53.887Z" fill="black"/>
<path fill-rule="evenodd" clip-rule="evenodd" d="M40.9073 148.894C43.7797 147.391 46.6628 145.976 49.4808 144.276C56.9889 139.747 64.2568 133.672 69.7298 126.62C70.2077 126.002 70.1855 125.25 69.6844 124.936C69.179 124.622 68.3846 124.868 67.9074 125.482C62.7164 132.177 55.8055 137.929 48.682 142.226C45.4559 144.171 42.1397 145.739 38.8571 147.499C38.6938 147.589 37.2558 148.315 36.9718 148.543C36.3083 149.069 36.2602 149.628 36.2718 149.88C36.2787 150.091 36.3405 150.327 36.532 150.536C36.6904 150.707 37.0917 150.935 37.73 151.103C39.7709 151.646 44.9239 152.15 45.7341 152.328C55.0217 154.37 62.8417 157.991 71.2355 161.561C71.7941 161.796 72.5824 161.462 72.9954 160.814C73.4084 160.166 73.2897 159.449 72.7336 159.211C64.234 155.595 56.3063 151.942 46.9051 149.876C46.3492 149.752 43.1807 149.249 40.9073 148.894Z" fill="black"/>
</g>
<defs>
<clipPath id="clip0_27_8860">
<rect width="161.916" height="120.916" fill="white" transform="translate(200.188 86.0889) rotate(135.396)"/>
</clipPath>
</defs>
</svg>
