<svg width="411" height="413" viewBox="0 0 411 413" fill="none" xmlns="http://www.w3.org/2000/svg">
<g clip-path="url(#clip0_0_1)">
<g filter="url(#filter0_d_0_1)">
<rect x="64" y="73.957" width="196" height="184" rx="20" fill="white"/>
</g>
<rect x="64" y="73.957" width="196" height="16" fill="black"/>
<rect x="218" y="78.957" width="6" height="6" rx="3" fill="#ED6B5F"/>
<rect x="228" y="78.957" width="6" height="6" rx="3" fill="#E5E5E5"/>
<rect x="238" y="78.957" width="6" height="6" rx="3" fill="#61C554"/>
<rect x="78" y="107.957" width="99" height="6" rx="3" fill="#CFD8E8"/>
<rect x="78" y="117.957" width="150" height="17" rx="5" fill="#EDF0F3"/>
<rect x="78" y="142.957" width="99" height="6" rx="3" fill="#CFD8E8"/>
<rect x="78" y="152.957" width="150" height="17" rx="5" fill="#EDF0F3"/>
<rect x="78" y="177.957" width="99" height="6" rx="3" fill="#CFD8E8"/>
<rect x="78" y="187.957" width="150" height="17" rx="5" fill="#EDF0F3"/>
<rect x="78" y="216.957" width="70" height="21" rx="10.5" fill="#CFD8E8"/>
</g>
<g filter="url(#filter1_d_0_1)">
<rect x="140" y="98.957" width="196" height="196" rx="12" fill="white"/>
</g>
<rect x="160" y="126.957" width="160" height="36" rx="10" fill="url(#paint0_linear_0_1)" fill-opacity="0.35"/>
<rect x="160" y="176.957" width="160" height="36" rx="10" fill="url(#paint1_linear_0_1)" fill-opacity="0.35"/>
<rect x="160" y="226.957" width="160" height="36" rx="10" fill="#C90000"/>
<path d="M211.698 240.23H213.279V245.931C213.279 246.556 213.131 247.106 212.836 247.581C212.543 248.055 212.131 248.426 211.6 248.693C211.069 248.957 210.448 249.089 209.738 249.089C209.025 249.089 208.403 248.957 207.871 248.693C207.34 248.426 206.928 248.055 206.636 247.581C206.343 247.106 206.197 246.556 206.197 245.931V240.23H207.778V245.799C207.778 246.163 207.857 246.487 208.016 246.771C208.178 247.055 208.406 247.278 208.698 247.44C208.991 247.599 209.337 247.679 209.738 247.679C210.138 247.679 210.485 247.599 210.778 247.44C211.073 247.278 211.3 247.055 211.46 246.771C211.619 246.487 211.698 246.163 211.698 245.799V240.23ZM216.472 245.122V248.957H214.929V242.412H216.404V243.524H216.48C216.631 243.157 216.871 242.866 217.201 242.65C217.533 242.434 217.944 242.326 218.432 242.326C218.884 242.326 219.277 242.423 219.613 242.616C219.951 242.809 220.212 243.089 220.397 243.456C220.584 243.822 220.676 244.267 220.674 244.789V248.957H219.131V245.028C219.131 244.591 219.017 244.248 218.79 244.001C218.566 243.754 218.255 243.63 217.857 243.63C217.587 243.63 217.347 243.69 217.137 243.809C216.929 243.926 216.766 244.095 216.647 244.316C216.53 244.538 216.472 244.806 216.472 245.122ZM223.784 240.23V248.957H222.242V240.23H223.784ZM228.226 249.085C227.587 249.085 227.033 248.944 226.564 248.663C226.095 248.382 225.732 247.988 225.473 247.483C225.217 246.977 225.089 246.386 225.089 245.71C225.089 245.034 225.217 244.441 225.473 243.933C225.732 243.424 226.095 243.029 226.564 242.748C227.033 242.467 227.587 242.326 228.226 242.326C228.865 242.326 229.419 242.467 229.888 242.748C230.357 243.029 230.719 243.424 230.974 243.933C231.233 244.441 231.362 245.034 231.362 245.71C231.362 246.386 231.233 246.977 230.974 247.483C230.719 247.988 230.357 248.382 229.888 248.663C229.419 248.944 228.865 249.085 228.226 249.085ZM228.234 247.849C228.581 247.849 228.871 247.754 229.104 247.564C229.337 247.37 229.51 247.112 229.624 246.788C229.74 246.464 229.798 246.103 229.798 245.706C229.798 245.305 229.74 244.943 229.624 244.619C229.51 244.292 229.337 244.032 229.104 243.839C228.871 243.646 228.581 243.549 228.234 243.549C227.879 243.549 227.584 243.646 227.348 243.839C227.115 244.032 226.94 244.292 226.824 244.619C226.71 244.943 226.653 245.305 226.653 245.706C226.653 246.103 226.71 246.464 226.824 246.788C226.94 247.112 227.115 247.37 227.348 247.564C227.584 247.754 227.879 247.849 228.234 247.849ZM235.527 249.085C234.873 249.085 234.312 248.941 233.843 248.654C233.377 248.368 233.018 247.971 232.765 247.466C232.515 246.957 232.39 246.372 232.39 245.71C232.39 245.045 232.518 244.458 232.774 243.95C233.029 243.439 233.39 243.041 233.856 242.757C234.325 242.47 234.879 242.326 235.518 242.326C236.049 242.326 236.52 242.424 236.929 242.62C237.341 242.814 237.669 243.088 237.913 243.443C238.157 243.795 238.297 244.207 238.331 244.679H236.856C236.797 244.363 236.654 244.1 236.43 243.89C236.208 243.677 235.912 243.571 235.539 243.571C235.224 243.571 234.947 243.656 234.708 243.826C234.47 243.994 234.284 244.235 234.15 244.551C234.02 244.866 233.954 245.244 233.954 245.684C233.954 246.13 234.02 246.514 234.15 246.835C234.281 247.153 234.464 247.399 234.7 247.572C234.939 247.743 235.218 247.828 235.539 247.828C235.767 247.828 235.97 247.785 236.149 247.7C236.331 247.612 236.483 247.485 236.605 247.321C236.727 247.156 236.811 246.956 236.856 246.72H238.331C238.294 247.183 238.157 247.593 237.922 247.951C237.686 248.306 237.365 248.585 236.958 248.787C236.552 248.985 236.075 249.085 235.527 249.085ZM241.004 246.903L240.999 245.041H241.246L243.599 242.412H245.401L242.508 245.633H242.188L241.004 246.903ZM239.597 248.957V240.23H241.14V248.957H239.597ZM243.705 248.957L241.575 245.978L242.614 244.892L245.55 248.957H243.705ZM256.646 240.23V248.957H255.24L251.127 243.012H251.055V248.957H249.474V240.23H250.889L254.997 246.179H255.074V240.23H256.646ZM261.156 249.085C260.516 249.085 259.962 248.944 259.494 248.663C259.025 248.382 258.661 247.988 258.403 247.483C258.147 246.977 258.019 246.386 258.019 245.71C258.019 245.034 258.147 244.441 258.403 243.933C258.661 243.424 259.025 243.029 259.494 242.748C259.962 242.467 260.516 242.326 261.156 242.326C261.795 242.326 262.349 242.467 262.817 242.748C263.286 243.029 263.648 243.424 263.904 243.933C264.163 244.441 264.292 245.034 264.292 245.71C264.292 246.386 264.163 246.977 263.904 247.483C263.648 247.988 263.286 248.382 262.817 248.663C262.349 248.944 261.795 249.085 261.156 249.085ZM261.164 247.849C261.511 247.849 261.8 247.754 262.033 247.564C262.266 247.37 262.44 247.112 262.553 246.788C262.67 246.464 262.728 246.103 262.728 245.706C262.728 245.305 262.67 244.943 262.553 244.619C262.44 244.292 262.266 244.032 262.033 243.839C261.8 243.646 261.511 243.549 261.164 243.549C260.809 243.549 260.513 243.646 260.278 243.839C260.045 244.032 259.87 244.292 259.754 244.619C259.64 244.943 259.583 245.305 259.583 245.706C259.583 246.103 259.64 246.464 259.754 246.788C259.87 247.112 260.045 247.37 260.278 247.564C260.513 247.754 260.809 247.849 261.164 247.849ZM266.765 248.957L264.915 242.412H266.488L267.638 247.014H267.698L268.874 242.412H270.429L271.605 246.988H271.669L272.803 242.412H274.38L272.526 248.957H270.919L269.692 244.534H269.603L268.375 248.957H266.765Z" fill="white"/>
<circle cx="256" cy="16.957" r="16" fill="#FFD600" fill-opacity="0.35"/>
<path d="M32 256.957C32 253.793 31.0616 250.699 29.3035 248.068C27.5454 245.437 25.0466 243.386 22.1229 242.175C19.1993 240.964 15.9823 240.647 12.8786 241.264C9.77486 241.882 6.92393 243.406 4.68629 245.643C2.44865 247.881 0.924799 250.732 0.307435 253.836C-0.309928 256.939 0.00692538 260.156 1.21793 263.08C2.42893 266.004 4.47969 268.502 7.11088 270.261C9.74206 272.019 12.8355 272.957 16 272.957V256.957H32Z" fill="#A654E3" fill-opacity="0.35"/>
<defs>
<filter id="filter0_d_0_1" x="-3" y="43.957" width="330" height="318" filterUnits="userSpaceOnUse" color-interpolation-filters="sRGB">
<feFlood flood-opacity="0" result="BackgroundImageFix"/>
<feColorMatrix in="SourceAlpha" type="matrix" values="0 0 0 0 0 0 0 0 0 0 0 0 0 0 0 0 0 0 127 0" result="hardAlpha"/>
<feOffset dy="37"/>
<feGaussianBlur stdDeviation="33.5"/>
<feComposite in2="hardAlpha" operator="out"/>
<feColorMatrix type="matrix" values="0 0 0 0 0 0 0 0 0 0 0 0 0 0 0 0 0 0 0.1 0"/>
<feBlend mode="normal" in2="BackgroundImageFix" result="effect1_dropShadow_0_1"/>
<feBlend mode="normal" in="SourceGraphic" in2="effect1_dropShadow_0_1" result="shape"/>
</filter>
<filter id="filter1_d_0_1" x="65" y="66.957" width="346" height="346" filterUnits="userSpaceOnUse" color-interpolation-filters="sRGB">
<feFlood flood-opacity="0" result="BackgroundImageFix"/>
<feColorMatrix in="SourceAlpha" type="matrix" values="0 0 0 0 0 0 0 0 0 0 0 0 0 0 0 0 0 0 127 0" result="hardAlpha"/>
<feOffset dy="43"/>
<feGaussianBlur stdDeviation="37.5"/>
<feComposite in2="hardAlpha" operator="out"/>
<feColorMatrix type="matrix" values="0 0 0 0 0 0 0 0 0 0 0 0 0 0 0 0 0 0 0.15 0"/>
<feBlend mode="normal" in2="BackgroundImageFix" result="effect1_dropShadow_0_1"/>
<feBlend mode="normal" in="SourceGraphic" in2="effect1_dropShadow_0_1" result="shape"/>
</filter>
<linearGradient id="paint0_linear_0_1" x1="240" y1="126.957" x2="330" y2="126.957" gradientUnits="userSpaceOnUse">
<stop stop-color="#E2E2E2"/>
<stop offset="1" stop-color="white" stop-opacity="0"/>
</linearGradient>
<linearGradient id="paint1_linear_0_1" x1="240" y1="176.957" x2="330" y2="176.957" gradientUnits="userSpaceOnUse">
<stop stop-color="#E2E2E2"/>
<stop offset="1" stop-color="white" stop-opacity="0"/>
</linearGradient>
<clipPath id="clip0_0_1">
<rect x="64" y="73.957" width="196" height="184" rx="12" fill="white"/>
</clipPath>
</defs>
</svg>
