<svg width="399" height="380" viewBox="0 0 399 380" fill="none" xmlns="http://www.w3.org/2000/svg">
<circle cx="225" cy="11.957" r="11" fill="#F64355" fill-opacity="0.35"/>
<path d="M32 246.957C32 243.793 31.0616 240.699 29.3035 238.068C27.5454 235.437 25.0466 233.386 22.1229 232.175C19.1993 230.964 15.9823 230.647 12.8786 231.264C9.77486 231.882 6.92393 233.406 4.68629 235.643C2.44865 237.881 0.924799 240.732 0.307435 243.836C-0.309928 246.939 0.00692538 250.156 1.21793 253.08C2.42893 256.004 4.47969 258.502 7.11088 260.261C9.74206 262.019 12.8355 262.957 16 262.957V246.957H32Z" fill="#F777BA" fill-opacity="0.35"/>
<g filter="url(#filter0_d_0_1)">
<g clip-path="url(#clip0_0_1)">
<rect x="67" y="91.957" width="196" height="184" rx="20" fill="white"/>
<rect x="91" y="123.957" width="65" height="10" rx="5" fill="#E5EAF2"/>
<rect x="91" y="188.957" width="150" height="8" rx="4" fill="#E5EAF2"/>
<rect x="91" y="160.957" width="99" height="8" rx="4" fill="#E5EAF2"/>
<rect x="91" y="174.957" width="99" height="8" rx="4" fill="#E5EAF2"/>
<rect x="91" y="223.957" width="47" height="10" rx="5" fill="#E5EAF2"/>
<rect x="67" y="91.957" width="196" height="16" fill="black"/>
<rect x="221" y="96.957" width="6" height="6" rx="3" fill="#ED6B5F"/>
<rect x="231" y="96.957" width="6" height="6" rx="3" fill="#E5E5E5"/>
<rect x="241" y="96.957" width="6" height="6" rx="3" fill="#61C554"/>
</g>
</g>
<g filter="url(#filter1_d_0_1)">
<rect x="165" y="159.957" width="159" height="48" rx="10" fill="#6A5696" shape-rendering="crispEdges"/>
<rect x="177" y="167.957" width="32" height="32" rx="16" fill="#8C7EAA"/>
<path opacity="0.5" d="M196.2 183.157H189.8C189.588 183.157 189.384 183.073 189.234 182.923C189.084 182.773 189 182.569 189 182.357V179.957C189 178.896 189.421 177.879 190.172 177.129C190.922 176.378 191.939 175.957 193 175.957C194.061 175.957 195.078 176.378 195.828 177.129C196.579 177.879 197 178.896 197 179.957V182.357C197 182.569 196.916 182.773 196.766 182.923C196.616 183.073 196.412 183.157 196.2 183.157ZM190.6 181.557H195.4V179.957C195.4 179.321 195.147 178.71 194.697 178.26C194.247 177.81 193.637 177.557 193 177.557C192.363 177.557 191.753 177.81 191.303 178.26C190.853 178.71 190.6 179.321 190.6 179.957V181.557Z" fill="white"/>
<path d="M197 181.557H189C187.674 181.557 186.6 182.631 186.6 183.957V189.557C186.6 190.882 187.674 191.957 189 191.957H197C198.325 191.957 199.4 190.882 199.4 189.557V183.957C199.4 182.631 198.325 181.557 197 181.557Z" fill="white"/>
<path d="M220.476 180.684H221.577V185.468C221.577 185.977 221.457 186.428 221.218 186.821C220.979 187.211 220.643 187.519 220.21 187.744C219.776 187.967 219.268 188.078 218.686 188.078C218.106 188.078 217.599 187.967 217.166 187.744C216.733 187.519 216.397 187.211 216.158 186.821C215.919 186.428 215.799 185.977 215.799 185.468V180.684H216.896V185.379C216.896 185.708 216.969 186 217.113 186.256C217.26 186.512 217.467 186.713 217.734 186.86C218.002 187.004 218.319 187.076 218.686 187.076C219.055 187.076 219.374 187.004 219.641 186.86C219.911 186.713 220.117 186.512 220.259 186.256C220.404 186 220.476 185.708 220.476 185.379V180.684ZM224.149 184.718V187.957H223.087V182.502H224.106V183.39H224.173C224.299 183.101 224.495 182.869 224.763 182.694C225.033 182.519 225.373 182.431 225.782 182.431C226.154 182.431 226.479 182.51 226.759 182.666C227.038 182.82 227.255 183.049 227.409 183.355C227.562 183.66 227.639 184.038 227.639 184.488V187.957H226.578V184.615C226.578 184.22 226.475 183.911 226.269 183.689C226.063 183.464 225.78 183.351 225.42 183.351C225.174 183.351 224.955 183.404 224.763 183.511C224.574 183.618 224.423 183.774 224.312 183.98C224.203 184.183 224.149 184.43 224.149 184.718ZM230.125 180.684V187.957H229.063V180.684H230.125ZM233.851 188.067C233.34 188.067 232.894 187.95 232.512 187.716C232.131 187.481 231.835 187.153 231.625 186.732C231.414 186.31 231.309 185.818 231.309 185.255C231.309 184.689 231.414 184.194 231.625 183.77C231.835 183.346 232.131 183.017 232.512 182.783C232.894 182.549 233.34 182.431 233.851 182.431C234.363 182.431 234.809 182.549 235.19 182.783C235.571 183.017 235.867 183.346 236.078 183.77C236.288 184.194 236.394 184.689 236.394 185.255C236.394 185.818 236.288 186.31 236.078 186.732C235.867 187.153 235.571 187.481 235.19 187.716C234.809 187.95 234.363 188.067 233.851 188.067ZM233.855 187.176C234.186 187.176 234.461 187.088 234.679 186.913C234.896 186.738 235.057 186.505 235.162 186.213C235.268 185.922 235.321 185.601 235.321 185.251C235.321 184.903 235.268 184.583 235.162 184.292C235.057 183.999 234.896 183.763 234.679 183.586C234.461 183.408 234.186 183.319 233.855 183.319C233.521 183.319 233.244 183.408 233.024 183.586C232.806 183.763 232.644 183.999 232.537 184.292C232.433 184.583 232.381 184.903 232.381 185.251C232.381 185.601 232.433 185.922 232.537 186.213C232.644 186.505 232.806 186.738 233.024 186.913C233.244 187.088 233.521 187.176 233.855 187.176ZM239.877 188.067C239.349 188.067 238.894 187.948 238.513 187.708C238.134 187.467 237.843 187.134 237.639 186.711C237.436 186.287 237.334 185.801 237.334 185.255C237.334 184.701 237.438 184.212 237.646 183.788C237.855 183.362 238.148 183.029 238.527 182.79C238.906 182.551 239.352 182.431 239.866 182.431C240.28 182.431 240.65 182.508 240.974 182.662C241.298 182.814 241.56 183.027 241.759 183.301C241.96 183.576 242.079 183.897 242.117 184.264H241.084C241.027 184.008 240.897 183.788 240.693 183.603C240.492 183.419 240.222 183.326 239.884 183.326C239.588 183.326 239.329 183.404 239.106 183.561C238.886 183.715 238.714 183.935 238.591 184.221C238.468 184.505 238.406 184.842 238.406 185.23C238.406 185.627 238.467 185.971 238.588 186.26C238.708 186.548 238.879 186.772 239.099 186.931C239.321 187.089 239.583 187.169 239.884 187.169C240.085 187.169 240.267 187.132 240.431 187.059C240.596 186.983 240.735 186.875 240.846 186.735C240.96 186.596 241.039 186.428 241.084 186.231H242.117C242.079 186.584 241.965 186.899 241.773 187.176C241.581 187.453 241.324 187.671 241.002 187.829C240.683 187.988 240.307 188.067 239.877 188.067ZM244.229 186.107L244.222 184.811H244.407L246.58 182.502H247.852L245.373 185.13H245.206L244.229 186.107ZM243.253 187.957V180.684H244.315V187.957H243.253ZM246.697 187.957L244.744 185.365L245.476 184.623L248.001 187.957H246.697ZM257.591 183.049H256.483C256.441 182.813 256.362 182.604 256.246 182.424C256.13 182.244 255.988 182.092 255.819 181.966C255.651 181.841 255.463 181.746 255.255 181.682C255.049 181.618 254.83 181.586 254.598 181.586C254.179 181.586 253.804 181.692 253.472 181.902C253.143 182.113 252.883 182.422 252.691 182.829C252.501 183.236 252.407 183.734 252.407 184.321C252.407 184.913 252.501 185.412 252.691 185.819C252.883 186.226 253.144 186.534 253.476 186.743C253.807 186.951 254.18 187.055 254.594 187.055C254.824 187.055 255.042 187.024 255.248 186.963C255.456 186.899 255.644 186.805 255.812 186.682C255.98 186.559 256.122 186.409 256.238 186.231C256.357 186.051 256.439 185.845 256.483 185.613L257.591 185.617C257.532 185.974 257.417 186.303 257.247 186.604C257.079 186.902 256.862 187.16 256.597 187.378C256.334 187.594 256.034 187.761 255.695 187.879C255.357 187.997 254.987 188.056 254.587 188.056C253.957 188.056 253.396 187.907 252.904 187.609C252.412 187.308 252.023 186.879 251.739 186.32C251.457 185.761 251.317 185.095 251.317 184.321C251.317 183.544 251.459 182.878 251.743 182.321C252.027 181.763 252.415 181.334 252.907 181.036C253.4 180.735 253.96 180.585 254.587 180.585C254.973 180.585 255.333 180.641 255.667 180.752C256.003 180.861 256.305 181.022 256.572 181.235C256.84 181.445 257.061 181.703 257.236 182.009C257.412 182.312 257.53 182.659 257.591 183.049ZM261.117 188.067C260.605 188.067 260.159 187.95 259.778 187.716C259.397 187.481 259.101 187.153 258.89 186.732C258.68 186.31 258.574 185.818 258.574 185.255C258.574 184.689 258.68 184.194 258.89 183.77C259.101 183.346 259.397 183.017 259.778 182.783C260.159 182.549 260.605 182.431 261.117 182.431C261.628 182.431 262.074 182.549 262.456 182.783C262.837 183.017 263.133 183.346 263.343 183.77C263.554 184.194 263.659 184.689 263.659 185.255C263.659 185.818 263.554 186.31 263.343 186.732C263.133 187.153 262.837 187.481 262.456 187.716C262.074 187.95 261.628 188.067 261.117 188.067ZM261.12 187.176C261.452 187.176 261.726 187.088 261.944 186.913C262.162 186.738 262.323 186.505 262.427 186.213C262.534 185.922 262.587 185.601 262.587 185.251C262.587 184.903 262.534 184.583 262.427 184.292C262.323 183.999 262.162 183.763 261.944 183.586C261.726 183.408 261.452 183.319 261.12 183.319C260.787 183.319 260.51 183.408 260.289 183.586C260.072 183.763 259.909 183.999 259.803 184.292C259.699 184.583 259.647 184.903 259.647 185.251C259.647 185.601 259.699 185.922 259.803 186.213C259.909 186.505 260.072 186.738 260.289 186.913C260.51 187.088 260.787 187.176 261.12 187.176ZM266.887 188.064C266.446 188.064 266.053 187.951 265.708 187.726C265.364 187.499 265.094 187.176 264.898 186.757C264.704 186.335 264.607 185.83 264.607 185.24C264.607 184.651 264.705 184.147 264.901 183.728C265.1 183.309 265.373 182.988 265.718 182.765C266.064 182.543 266.456 182.431 266.894 182.431C267.232 182.431 267.504 182.488 267.71 182.602C267.919 182.713 268.08 182.843 268.193 182.993C268.309 183.142 268.399 183.273 268.463 183.387H268.527V180.684H269.589V187.957H268.552V187.108H268.463C268.399 187.224 268.307 187.357 268.186 187.506C268.068 187.655 267.905 187.785 267.696 187.897C267.488 188.008 267.218 188.064 266.887 188.064ZM267.121 187.158C267.426 187.158 267.684 187.078 267.895 186.917C268.108 186.753 268.269 186.527 268.378 186.238C268.489 185.949 268.545 185.613 268.545 185.23C268.545 184.851 268.49 184.52 268.382 184.235C268.273 183.951 268.113 183.73 267.902 183.571C267.691 183.413 267.431 183.333 267.121 183.333C266.801 183.333 266.535 183.416 266.322 183.582C266.109 183.748 265.948 183.974 265.839 184.26C265.732 184.547 265.679 184.87 265.679 185.23C265.679 185.594 265.734 185.922 265.843 186.213C265.951 186.505 266.112 186.735 266.325 186.906C266.541 187.074 266.806 187.158 267.121 187.158ZM273.455 188.067C272.918 188.067 272.455 187.952 272.067 187.723C271.681 187.491 271.383 187.165 271.172 186.746C270.964 186.325 270.859 185.831 270.859 185.265C270.859 184.707 270.964 184.214 271.172 183.788C271.383 183.362 271.676 183.029 272.053 182.79C272.431 182.551 272.874 182.431 273.381 182.431C273.688 182.431 273.987 182.482 274.276 182.584C274.564 182.686 274.824 182.846 275.053 183.064C275.283 183.281 275.464 183.564 275.597 183.912C275.729 184.258 275.795 184.678 275.795 185.173V185.549H271.46V184.754H274.755C274.755 184.475 274.698 184.227 274.585 184.012C274.471 183.794 274.311 183.622 274.105 183.497C273.902 183.371 273.662 183.309 273.388 183.309C273.089 183.309 272.829 183.382 272.607 183.529C272.386 183.673 272.216 183.863 272.095 184.097C271.977 184.329 271.918 184.581 271.918 184.853V185.475C271.918 185.839 271.982 186.15 272.109 186.405C272.24 186.661 272.421 186.856 272.653 186.991C272.885 187.124 273.156 187.19 273.466 187.19C273.667 187.19 273.851 187.162 274.016 187.105C274.182 187.046 274.325 186.958 274.446 186.842C274.567 186.726 274.659 186.583 274.723 186.412L275.728 186.593C275.647 186.889 275.503 187.149 275.295 187.371C275.089 187.591 274.83 187.763 274.517 187.886C274.207 188.007 273.853 188.067 273.455 188.067Z" fill="white" fill-opacity="0.8"/>
<path d="M282.152 188.056C281.65 188.056 281.203 187.964 280.81 187.779C280.419 187.595 280.109 187.34 279.879 187.016C279.65 186.692 279.53 186.32 279.521 185.901H281.012C281.029 186.183 281.147 186.411 281.367 186.586C281.587 186.761 281.849 186.849 282.152 186.849C282.393 186.849 282.607 186.796 282.791 186.689C282.978 186.58 283.124 186.43 283.228 186.238C283.335 186.044 283.388 185.822 283.388 185.571C283.388 185.315 283.333 185.09 283.224 184.896C283.118 184.702 282.97 184.55 282.781 184.441C282.591 184.333 282.375 184.277 282.131 184.275C281.918 184.275 281.71 184.318 281.509 184.406C281.31 184.493 281.155 184.613 281.044 184.765L279.677 184.52L280.021 180.684H284.467V181.941H281.289L281.101 183.763H281.143C281.271 183.583 281.464 183.434 281.722 183.316C281.98 183.197 282.269 183.138 282.589 183.138C283.027 183.138 283.417 183.241 283.761 183.447C284.104 183.653 284.375 183.936 284.574 184.296C284.773 184.653 284.871 185.065 284.869 185.532C284.871 186.022 284.757 186.457 284.528 186.838C284.3 187.217 283.982 187.516 283.572 187.733C283.165 187.949 282.692 188.056 282.152 188.056ZM288.597 188.056C288.095 188.056 287.648 187.964 287.255 187.779C286.864 187.595 286.554 187.34 286.325 187.016C286.095 186.692 285.975 186.32 285.966 185.901H287.457C287.474 186.183 287.592 186.411 287.812 186.586C288.033 186.761 288.294 186.849 288.597 186.849C288.839 186.849 289.052 186.796 289.237 186.689C289.424 186.58 289.569 186.43 289.673 186.238C289.78 186.044 289.833 185.822 289.833 185.571C289.833 185.315 289.779 185.09 289.67 184.896C289.563 184.702 289.415 184.55 289.226 184.441C289.036 184.333 288.82 184.277 288.576 184.275C288.363 184.275 288.156 184.318 287.955 184.406C287.756 184.493 287.601 184.613 287.489 184.765L286.122 184.52L286.467 180.684H290.913V181.941H287.734L287.546 183.763H287.589C287.717 183.583 287.91 183.434 288.168 183.316C288.426 183.197 288.714 183.138 289.034 183.138C289.472 183.138 289.863 183.241 290.206 183.447C290.549 183.653 290.82 183.936 291.019 184.296C291.218 184.653 291.316 185.065 291.314 185.532C291.316 186.022 291.203 186.457 290.973 186.838C290.746 187.217 290.427 187.516 290.018 187.733C289.611 187.949 289.137 188.056 288.597 188.056ZM295.178 188.056C294.804 188.054 294.442 187.991 294.094 187.868C293.749 187.745 293.439 187.545 293.164 187.268C292.889 186.991 292.672 186.624 292.511 186.167C292.352 185.71 292.273 185.149 292.273 184.484C292.275 183.873 292.345 183.328 292.482 182.847C292.622 182.364 292.821 181.954 293.079 181.618C293.339 181.282 293.651 181.026 294.013 180.851C294.375 180.674 294.781 180.585 295.231 180.585C295.716 180.585 296.145 180.68 296.516 180.869C296.888 181.056 297.186 181.31 297.411 181.632C297.638 181.954 297.776 182.315 297.823 182.716H296.307C296.248 182.462 296.123 182.263 295.934 182.119C295.745 181.975 295.51 181.902 295.231 181.902C294.757 181.902 294.397 182.108 294.151 182.52C293.907 182.932 293.783 183.492 293.778 184.2H293.828C293.937 183.984 294.084 183.801 294.268 183.65C294.455 183.496 294.667 183.378 294.904 183.298C295.143 183.215 295.395 183.174 295.661 183.174C296.091 183.174 296.475 183.275 296.811 183.479C297.147 183.68 297.412 183.957 297.607 184.31C297.801 184.663 297.898 185.066 297.898 185.521C297.898 186.013 297.783 186.451 297.553 186.835C297.326 187.218 297.008 187.519 296.598 187.737C296.191 187.952 295.717 188.059 295.178 188.056ZM295.17 186.849C295.407 186.849 295.619 186.792 295.806 186.679C295.993 186.565 296.14 186.411 296.246 186.217C296.353 186.023 296.406 185.805 296.406 185.564C296.406 185.322 296.353 185.105 296.246 184.914C296.142 184.722 295.998 184.569 295.813 184.456C295.629 184.342 295.418 184.285 295.181 184.285C295.004 184.285 294.839 184.318 294.688 184.385C294.538 184.451 294.407 184.543 294.293 184.662C294.182 184.78 294.094 184.917 294.031 185.074C293.967 185.227 293.935 185.392 293.935 185.567C293.935 185.801 293.988 186.016 294.094 186.21C294.203 186.404 294.35 186.559 294.535 186.675C294.722 186.791 294.934 186.849 295.17 186.849ZM301.676 188.056C301.146 188.056 300.674 187.965 300.259 187.783C299.847 187.598 299.522 187.345 299.283 187.023C299.046 186.699 298.924 186.325 298.917 185.901H300.465C300.475 186.078 300.533 186.235 300.639 186.37C300.748 186.502 300.893 186.605 301.072 186.679C301.252 186.752 301.455 186.789 301.68 186.789C301.914 186.789 302.121 186.747 302.301 186.664C302.481 186.582 302.622 186.467 302.724 186.32C302.826 186.173 302.876 186.004 302.876 185.812C302.876 185.618 302.822 185.446 302.713 185.297C302.607 185.146 302.453 185.027 302.251 184.942C302.053 184.857 301.816 184.814 301.541 184.814H300.863V183.685H301.541C301.773 183.685 301.978 183.645 302.156 183.564C302.335 183.484 302.475 183.373 302.575 183.23C302.674 183.086 302.724 182.918 302.724 182.726C302.724 182.544 302.68 182.384 302.592 182.247C302.507 182.107 302.386 181.998 302.23 181.92C302.076 181.842 301.896 181.803 301.69 181.803C301.482 181.803 301.291 181.841 301.119 181.917C300.946 181.99 300.807 182.095 300.703 182.233C300.599 182.37 300.543 182.531 300.536 182.716H299.062C299.07 182.297 299.189 181.927 299.421 181.608C299.653 181.288 299.966 181.038 300.359 180.858C300.754 180.676 301.2 180.585 301.697 180.585C302.199 180.585 302.638 180.676 303.015 180.858C303.391 181.041 303.684 181.287 303.892 181.597C304.103 181.905 304.207 182.25 304.205 182.634C304.207 183.041 304.08 183.381 303.825 183.653C303.571 183.925 303.241 184.098 302.834 184.172V184.228C303.369 184.297 303.776 184.483 304.055 184.786C304.337 185.087 304.477 185.463 304.474 185.915C304.477 186.329 304.357 186.698 304.116 187.02C303.877 187.342 303.546 187.595 303.125 187.779C302.704 187.964 302.221 188.056 301.676 188.056ZM305.47 186.679V185.468L308.506 180.684H309.55V182.36H308.932L307.018 185.39V185.446H311.333V186.679H305.47ZM308.96 187.957V186.309L308.989 185.773V180.684H310.431V187.957H308.96Z" fill="white"/>
</g>
<defs>
<filter id="filter0_d_0_1" x="0" y="61.957" width="330" height="318" filterUnits="userSpaceOnUse" color-interpolation-filters="sRGB">
<feFlood flood-opacity="0" result="BackgroundImageFix"/>
<feColorMatrix in="SourceAlpha" type="matrix" values="0 0 0 0 0 0 0 0 0 0 0 0 0 0 0 0 0 0 127 0" result="hardAlpha"/>
<feOffset dy="37"/>
<feGaussianBlur stdDeviation="33.5"/>
<feComposite in2="hardAlpha" operator="out"/>
<feColorMatrix type="matrix" values="0 0 0 0 0 0 0 0 0 0 0 0 0 0 0 0 0 0 0.1 0"/>
<feBlend mode="normal" in2="BackgroundImageFix" result="effect1_dropShadow_0_1"/>
<feBlend mode="normal" in="SourceGraphic" in2="effect1_dropShadow_0_1" result="shape"/>
</filter>
<filter id="filter1_d_0_1" x="90" y="127.957" width="309" height="198" filterUnits="userSpaceOnUse" color-interpolation-filters="sRGB">
<feFlood flood-opacity="0" result="BackgroundImageFix"/>
<feColorMatrix in="SourceAlpha" type="matrix" values="0 0 0 0 0 0 0 0 0 0 0 0 0 0 0 0 0 0 127 0" result="hardAlpha"/>
<feOffset dy="43"/>
<feGaussianBlur stdDeviation="37.5"/>
<feComposite in2="hardAlpha" operator="out"/>
<feColorMatrix type="matrix" values="0 0 0 0 0 0 0 0 0 0 0 0 0 0 0 0 0 0 0.15 0"/>
<feBlend mode="normal" in2="BackgroundImageFix" result="effect1_dropShadow_0_1"/>
<feBlend mode="normal" in="SourceGraphic" in2="effect1_dropShadow_0_1" result="shape"/>
</filter>
<clipPath id="clip0_0_1">
<rect x="67" y="91.957" width="196" height="184" rx="12" fill="white"/>
</clipPath>
</defs>
</svg>
