<svg width="32" height="32" viewBox="0 0 32 32" fill="none" xmlns="http://www.w3.org/2000/svg">
<path fill-rule="evenodd" clip-rule="evenodd" d="M4.07482 14.1536C5.50251 13.6448 7.0049 12.9687 8.16346 11.9899C9.53946 10.8272 10.0991 9.32978 10.4749 7.75357C10.9573 5.72855 11.1501 3.57139 11.7351 1.54309C11.9517 0.789855 12.3686 0.505132 12.5475 0.378773C12.9996 0.0595938 13.4566 -0.0257227 13.8865 0.00627726C14.3961 0.0432003 15.096 0.236008 15.5563 1.09016C15.6219 1.21242 15.7072 1.39868 15.7647 1.65386C15.8065 1.84094 15.8336 2.42595 15.8779 2.66718C15.9887 3.26124 16.0814 3.85531 16.1684 4.45264C16.458 6.44074 16.6246 8.12934 17.5395 9.9558C18.7809 12.4354 20.0248 13.9525 21.7118 14.6245C23.343 15.2744 25.2933 15.1521 27.7852 14.6426C28.0223 14.5852 28.257 14.5359 28.4892 14.4957C29.5878 14.3037 30.6381 15.0249 30.8539 16.1195C31.0697 17.2133 30.3715 18.2791 29.2826 18.5195C29.0554 18.5695 28.8314 18.6171 28.6098 18.6606C25.2424 19.4943 21.3442 22.4695 19.0787 25.0746C18.3805 25.8779 17.3581 28.1236 16.3153 29.5562C15.5456 30.613 14.6808 31.3097 13.9546 31.5558C13.4681 31.7216 13.0578 31.6961 12.7189 31.6124C12.2266 31.491 11.818 31.2243 11.5046 30.8001C11.3339 30.5679 11.1755 30.2569 11.1001 29.8598C11.064 29.6686 11.0599 29.1829 11.0607 28.963C10.8482 28.2319 10.5881 27.5181 10.3985 26.7804C9.94643 25.0204 9.05945 23.9062 8.00591 22.4342C7.02047 21.0565 5.96205 20.1909 4.41046 19.5C4.20861 19.4508 2.57989 19.052 2.00471 18.8231C1.1645 18.4875 0.764069 17.9254 0.618839 17.6227C0.371864 17.109 0.346451 16.6602 0.395681 16.2861C0.468707 15.7339 0.716504 15.2613 1.1563 14.8797C1.42871 14.6426 1.83569 14.412 2.38051 14.2996C2.80143 14.2118 3.9181 14.1609 4.07482 14.1536ZM13.6297 11.285C13.7052 11.4532 13.7856 11.6223 13.8709 11.7929C15.6892 15.4245 17.7224 17.452 20.1938 18.4358L20.2767 18.4678C18.6234 19.6953 17.1267 21.0672 15.9829 22.3825C15.5119 22.924 14.8884 24.049 14.2147 25.2026C13.6026 23.2128 12.6016 21.8065 11.3429 20.0465C10.3813 18.7033 9.37372 17.6925 8.13557 16.8687C9.09639 16.3755 10.0129 15.7979 10.8112 15.1234C12.1405 14.0001 13.0192 12.6988 13.6297 11.285Z" fill="white"/>
</svg>
