<svg width="108" height="64" viewBox="0 0 108 64" fill="none" xmlns="http://www.w3.org/2000/svg">
<path fill-rule="evenodd" clip-rule="evenodd" d="M77.8698 60.8863C87.5123 61.1179 97.3663 60.6547 106.586 63.9394C107.136 64.1331 107.74 63.8509 107.939 63.3035C108.133 62.756 107.85 62.1539 107.301 61.9559C97.8651 58.5954 87.7871 59.0165 77.9205 58.7807C77.3371 58.7639 76.851 59.2271 76.8383 59.8082C76.8214 60.3894 77.2864 60.8694 77.8698 60.8863Z" fill="black"/>
<path fill-rule="evenodd" clip-rule="evenodd" d="M77.0027 46.9391C80.0083 44.1842 83.2888 42.1203 87.254 41.0974C87.8205 40.9517 88.1586 40.3769 88.0149 39.8143C87.8669 39.2517 87.2878 38.9135 86.7256 39.0592C82.4137 40.171 78.8416 42.3953 75.5739 45.389C75.1427 45.7823 75.1131 46.449 75.5104 46.8768C75.9036 47.3043 76.5757 47.3325 77.0027 46.9391Z" fill="black"/>
<path fill-rule="evenodd" clip-rule="evenodd" d="M68.6423 16.8624C70.0205 12.1565 72.7344 8.4751 76.8941 5.8166C77.3845 5.50287 77.5282 4.85099 77.2112 4.36208C76.8983 3.87316 76.2431 3.73081 75.7527 4.04454C71.1491 6.98814 68.1393 11.062 66.6132 16.2724C66.4483 16.83 66.7739 17.4154 67.3319 17.5779C67.8941 17.7409 68.4817 17.42 68.6423 16.8624Z" fill="black"/>
<path fill-rule="evenodd" clip-rule="evenodd" d="M21.1472 10.4759C20.3271 11.4373 19.5916 12.4732 18.9659 13.5761C18.6869 14.0672 18.1965 15.1107 18.1204 16.0055C18.0359 16.9589 18.3614 17.7633 19.1984 18.1869C20.3102 18.7487 21.198 18.6902 21.8828 18.3503C22.5422 18.024 23.0579 17.3826 23.3835 16.5227C24.0049 14.8791 23.9119 12.3671 23.5864 10.9337C24.4614 10.0342 25.421 9.21844 26.4483 8.49328C34.0998 3.09248 45.3234 5.08394 53.9598 13.1592C56.9824 15.9866 58.4366 21.9243 59.1933 28.3307C60.3727 38.3057 59.7006 49.4467 59.6076 52.7108C59.5864 53.5168 59.6625 53.9952 59.7048 54.0908C59.9035 54.5607 60.2543 54.6828 60.4995 54.7292C60.8546 54.7923 61.1378 54.725 61.3661 54.607C61.6747 54.4453 61.9284 54.1607 62.0467 53.7214C62.1102 53.4789 62.127 53.1411 62.1186 52.7811C62.1101 52.5314 62.0594 52.2585 62.1101 52.0795C62.4398 50.9332 62.8372 49.8139 63.2261 48.6866C64.5239 44.897 66.2022 41.3457 68.0665 37.7987C73.989 26.528 79.717 14.6192 89.4272 6.03229C89.8626 5.64697 89.9049 4.98077 89.516 4.54618C89.1313 4.11159 88.4634 4.07199 88.0237 4.45773C78.1191 13.2144 72.2346 25.3282 66.1937 36.8221C64.6085 39.8394 63.1543 42.8609 61.9452 46.0214C62.0678 40.4306 62.0213 32.6918 60.9941 25.8445C60.081 19.7547 58.3436 14.3729 55.4056 11.6243C45.9448 2.77791 33.6052 0.858898 25.2266 6.77556C24.3304 7.40892 23.4765 8.10545 22.6818 8.86093C18.298 0.975558 8.91328 -2.18493 0.619236 1.58658C0.0865911 1.82787 -0.145908 2.45281 0.0950499 2.98131C0.340236 3.50981 0.965859 3.74312 1.4985 3.50182C8.97244 0.103424 17.4483 3.13628 21.1472 10.4759ZM21.7602 13.1159C21.4178 13.5976 21.1007 14.0971 20.8048 14.6133C20.6484 14.8904 20.3778 15.4232 20.2637 15.9445C20.2383 16.0666 20.2341 16.2578 20.2341 16.3462C20.5258 16.4894 20.754 16.5585 20.94 16.4654C21.1725 16.3509 21.2909 16.0814 21.4051 15.7803C21.6925 15.0248 21.7855 14.0234 21.7602 13.1159Z" fill="black"/>
</svg>
