<svg width="256" height="256" viewBox="0 0 256 256" fill="none" xmlns="http://www.w3.org/2000/svg">
<g clip-path="url(#clip0_28_8977)">
<path fill-rule="evenodd" clip-rule="evenodd" d="M37.0407 98.8783C45.5598 115.798 63.4878 129.664 84.8478 139.23C116.764 153.52 156.318 158.226 183.213 149.464C183.765 149.277 184.068 148.678 183.889 148.132C183.707 147.571 183.117 147.273 182.557 147.455C156.077 156.078 117.138 151.376 85.7106 137.296C64.8331 127.95 47.2529 114.469 38.9326 97.9258C38.6704 97.3997 38.0366 97.1938 37.5105 97.4561C36.9983 97.7149 36.7785 98.3522 37.0407 98.8783Z" fill="black"/>
<path fill-rule="evenodd" clip-rule="evenodd" d="M216.78 148.519C200.941 152.797 186.602 154.95 172.63 165.407C172.164 165.765 172.061 166.425 172.419 166.891C172.763 167.36 173.428 167.455 173.889 167.105C189.265 155.602 205.113 154.363 222.93 148.97C223.891 148.675 223.861 147.922 223.839 147.743C223.811 147.476 223.68 147.066 223.142 146.858C223.036 146.818 222.817 146.769 222.501 146.743C221.894 146.708 220.654 146.739 220.098 146.699C218.494 146.569 216.902 146.4 215.297 146.27C210.71 145.899 206.141 145.48 201.607 144.727C184.643 141.937 170.754 139.764 160.039 125.552C159.686 125.077 159.029 124.988 158.555 125.341C158.094 125.69 158 126.356 158.349 126.816C169.429 141.522 183.722 143.928 201.265 146.819C205.858 147.572 210.49 148.006 215.122 148.38C215.678 148.42 216.229 148.47 216.78 148.519Z" fill="black"/>
</g>
<defs>
<clipPath id="clip0_28_8977">
<rect width="186" height="186" fill="white" transform="translate(0 159.123) rotate(-58.815)"/>
</clipPath>
</defs>
</svg>
