<svg width="420" height="376" viewBox="0 0 420 376" fill="none" xmlns="http://www.w3.org/2000/svg">
<circle cx="272" cy="16.957" r="16" fill="#FFD600" fill-opacity="0.35"/>
<path d="M32 256.957C32 253.793 31.0616 250.699 29.3035 248.068C27.5454 245.437 25.0466 243.386 22.1229 242.175C19.1993 240.964 15.9823 240.647 12.8786 241.264C9.77486 241.882 6.92393 243.406 4.68629 245.643C2.44865 247.881 0.924799 250.732 0.307435 253.836C-0.309928 256.939 0.00692538 260.156 1.21793 263.08C2.42893 266.004 4.47969 268.502 7.11088 270.261C9.74206 272.019 12.8355 272.957 16 272.957V256.957H32Z" fill="#A654E3" fill-opacity="0.35"/>
<g filter="url(#filter0_d_0_1)">
<g clip-path="url(#clip0_0_1)">
<rect x="71" y="87.957" width="196" height="184" rx="20" fill="white"/>
<rect x="71" y="87.957" width="196" height="16" fill="black"/>
<rect x="225" y="92.957" width="6" height="6" rx="3" fill="#ED6B5F"/>
<rect x="235" y="92.957" width="6" height="6" rx="3" fill="#E5E5E5"/>
<rect x="245" y="92.957" width="6" height="6" rx="3" fill="#61C554"/>
<rect x="95" y="170.957" width="150" height="22" rx="5" fill="#EDF0F3"/>
<rect x="95" y="156.957" width="99" height="8" rx="4" fill="#CFD8E8"/>
<rect x="95" y="203.957" width="47" height="10" rx="5" fill="#CFD8E8"/>
</g>
</g>
<g filter="url(#filter1_d_0_1)">
<rect x="169" y="155.957" width="176" height="48" rx="10" fill="#2E0CFF" shape-rendering="crispEdges"/>
<rect x="181" y="163.957" width="32" height="32" rx="16" fill="white" fill-opacity="0.1"/>
<path d="M197 169.957C191.48 169.957 187 174.437 187 179.957C187 185.477 191.48 189.957 197 189.957C202.52 189.957 207 185.477 207 179.957C207 174.437 202.52 169.957 197 169.957ZM197 187.957C192.59 187.957 189 184.367 189 179.957C189 175.547 192.59 171.957 197 171.957C201.41 171.957 205 175.547 205 179.957C205 184.367 201.41 187.957 197 187.957ZM200.88 176.247L195 182.127L193.12 180.247C192.933 180.06 192.679 179.955 192.415 179.955C192.151 179.955 191.897 180.06 191.71 180.247C191.523 180.434 191.418 180.688 191.418 180.952C191.418 181.216 191.523 181.47 191.71 181.657L194.3 184.247C194.69 184.637 195.32 184.637 195.71 184.247L202.3 177.657C202.393 177.565 202.466 177.455 202.516 177.334C202.567 177.213 202.592 177.083 202.592 176.952C202.592 176.821 202.567 176.691 202.516 176.57C202.466 176.449 202.393 176.34 202.3 176.247C201.91 175.857 201.27 175.857 200.88 176.247Z" fill="white"/>
<path d="M219.238 176.684H220.484L222.384 179.99H222.462L224.362 176.684H225.609L222.97 181.102V183.957H221.876V181.102L219.238 176.684ZM227.959 184.067C227.447 184.067 227.001 183.95 226.62 183.716C226.239 183.481 225.943 183.153 225.732 182.732C225.521 182.31 225.416 181.818 225.416 181.255C225.416 180.689 225.521 180.194 225.732 179.77C225.943 179.346 226.239 179.017 226.62 178.783C227.001 178.549 227.447 178.431 227.959 178.431C228.47 178.431 228.916 178.549 229.297 178.783C229.679 179.017 229.974 179.346 230.185 179.77C230.396 180.194 230.501 180.689 230.501 181.255C230.501 181.818 230.396 182.31 230.185 182.732C229.974 183.153 229.679 183.481 229.297 183.716C228.916 183.95 228.47 184.067 227.959 184.067ZM227.962 183.176C228.294 183.176 228.568 183.088 228.786 182.913C229.004 182.738 229.165 182.505 229.269 182.213C229.376 181.922 229.429 181.601 229.429 181.251C229.429 180.903 229.376 180.583 229.269 180.292C229.165 179.999 229.004 179.763 228.786 179.586C228.568 179.408 228.294 179.319 227.962 179.319C227.628 179.319 227.351 179.408 227.131 179.586C226.913 179.763 226.751 179.999 226.645 180.292C226.541 180.583 226.488 180.903 226.488 181.251C226.488 181.601 226.541 181.922 226.645 182.213C226.751 182.505 226.913 182.738 227.131 182.913C227.351 183.088 227.628 183.176 227.962 183.176ZM235.142 181.695V178.502H236.207V183.957H235.163V183.012H235.106C234.981 183.304 234.779 183.546 234.502 183.74C234.228 183.932 233.886 184.028 233.476 184.028C233.126 184.028 232.816 183.951 232.546 183.797C232.278 183.641 232.068 183.41 231.914 183.105C231.762 182.799 231.686 182.422 231.686 181.972V178.502H232.748V181.844C232.748 182.216 232.851 182.512 233.057 182.732C233.263 182.952 233.531 183.062 233.86 183.062C234.059 183.062 234.256 183.012 234.453 182.913C234.652 182.814 234.816 182.663 234.946 182.462C235.079 182.261 235.144 182.005 235.142 181.695ZM237.634 183.957V178.502H238.66V179.369H238.717C238.816 179.075 238.991 178.845 239.242 178.676C239.496 178.506 239.782 178.421 240.102 178.421C240.168 178.421 240.246 178.423 240.336 178.428C240.428 178.433 240.501 178.439 240.553 178.446V179.461C240.51 179.449 240.434 179.436 240.325 179.422C240.217 179.406 240.108 179.397 239.999 179.397C239.748 179.397 239.524 179.451 239.328 179.557C239.133 179.661 238.98 179.807 238.866 179.994C238.752 180.179 238.695 180.389 238.695 180.626V183.957H237.634ZM244.203 183.957V176.684H246.796C247.361 176.684 247.83 176.787 248.202 176.993C248.574 177.199 248.852 177.481 249.036 177.838C249.221 178.194 249.313 178.594 249.313 179.039C249.313 179.486 249.22 179.889 249.033 180.246C248.848 180.601 248.569 180.883 248.195 181.091C247.823 181.297 247.356 181.4 246.792 181.4H245.009V180.47H246.693C247.05 180.47 247.34 180.408 247.563 180.285C247.785 180.16 247.949 179.989 248.053 179.774C248.157 179.558 248.209 179.313 248.209 179.039C248.209 178.764 248.157 178.52 248.053 178.307C247.949 178.094 247.784 177.927 247.559 177.806C247.337 177.686 247.043 177.625 246.678 177.625H245.301V183.957H244.203ZM251.576 180.718V183.957H250.515V176.684H251.562V179.39H251.63C251.757 179.097 251.953 178.864 252.216 178.691C252.478 178.518 252.822 178.431 253.245 178.431C253.619 178.431 253.946 178.508 254.225 178.662C254.507 178.816 254.725 179.046 254.879 179.351C255.035 179.654 255.113 180.033 255.113 180.488V183.957H254.051V180.615C254.051 180.215 253.949 179.905 253.743 179.685C253.537 179.462 253.25 179.351 252.883 179.351C252.632 179.351 252.407 179.404 252.208 179.511C252.012 179.618 251.857 179.774 251.743 179.98C251.632 180.183 251.576 180.43 251.576 180.718ZM258.828 184.067C258.316 184.067 257.87 183.95 257.489 183.716C257.108 183.481 256.812 183.153 256.601 182.732C256.391 182.31 256.285 181.818 256.285 181.255C256.285 180.689 256.391 180.194 256.601 179.77C256.812 179.346 257.108 179.017 257.489 178.783C257.87 178.549 258.316 178.431 258.828 178.431C259.339 178.431 259.785 178.549 260.167 178.783C260.548 179.017 260.844 179.346 261.054 179.77C261.265 180.194 261.37 180.689 261.37 181.255C261.37 181.818 261.265 182.31 261.054 182.732C260.844 183.153 260.548 183.481 260.167 183.716C259.785 183.95 259.339 184.067 258.828 184.067ZM258.831 183.176C259.163 183.176 259.437 183.088 259.655 182.913C259.873 182.738 260.034 182.505 260.138 182.213C260.245 181.922 260.298 181.601 260.298 181.251C260.298 180.903 260.245 180.583 260.138 180.292C260.034 179.999 259.873 179.763 259.655 179.586C259.437 179.408 259.163 179.319 258.831 179.319C258.498 179.319 258.221 179.408 258 179.586C257.783 179.763 257.62 179.999 257.514 180.292C257.41 180.583 257.358 180.903 257.358 181.251C257.358 181.601 257.41 181.922 257.514 182.213C257.62 182.505 257.783 182.738 258 182.913C258.221 183.088 258.498 183.176 258.831 183.176ZM263.617 180.718V183.957H262.556V178.502H263.575V179.39H263.642C263.768 179.101 263.964 178.869 264.232 178.694C264.502 178.519 264.841 178.431 265.251 178.431C265.623 178.431 265.948 178.51 266.227 178.666C266.507 178.82 266.723 179.049 266.877 179.355C267.031 179.66 267.108 180.038 267.108 180.488V183.957H266.046V180.615C266.046 180.22 265.943 179.911 265.737 179.689C265.531 179.464 265.249 179.351 264.889 179.351C264.642 179.351 264.423 179.404 264.232 179.511C264.042 179.618 263.892 179.774 263.781 179.98C263.672 180.183 263.617 180.43 263.617 180.718ZM270.883 184.067C270.346 184.067 269.883 183.952 269.494 183.723C269.109 183.491 268.81 183.165 268.6 182.746C268.391 182.325 268.287 181.831 268.287 181.265C268.287 180.707 268.391 180.214 268.6 179.788C268.81 179.362 269.104 179.029 269.48 178.79C269.859 178.551 270.302 178.431 270.808 178.431C271.116 178.431 271.414 178.482 271.703 178.584C271.992 178.686 272.251 178.846 272.481 179.064C272.711 179.281 272.892 179.564 273.024 179.912C273.157 180.258 273.223 180.678 273.223 181.173V181.549H268.887V180.754H272.183C272.183 180.475 272.126 180.227 272.012 180.012C271.899 179.794 271.739 179.622 271.533 179.497C271.329 179.371 271.09 179.309 270.816 179.309C270.517 179.309 270.257 179.382 270.034 179.529C269.814 179.673 269.644 179.863 269.523 180.097C269.405 180.329 269.345 180.581 269.345 180.853V181.475C269.345 181.839 269.409 182.15 269.537 182.405C269.667 182.661 269.848 182.856 270.08 182.991C270.312 183.124 270.584 183.19 270.894 183.19C271.095 183.19 271.278 183.162 271.444 183.105C271.61 183.046 271.753 182.958 271.874 182.842C271.994 182.726 272.087 182.583 272.151 182.412L273.156 182.593C273.075 182.889 272.931 183.149 272.722 183.371C272.517 183.591 272.257 183.763 271.945 183.886C271.635 184.007 271.281 184.067 270.883 184.067ZM278.23 176.684V183.957H277.133V176.684H278.23ZM283.83 179.834L282.868 180.005C282.828 179.882 282.764 179.764 282.676 179.653C282.591 179.542 282.475 179.451 282.328 179.38C282.182 179.309 281.998 179.273 281.778 179.273C281.477 179.273 281.226 179.341 281.025 179.475C280.824 179.608 280.723 179.78 280.723 179.99C280.723 180.173 280.791 180.319 280.926 180.431C281.061 180.542 281.278 180.633 281.579 180.704L282.445 180.903C282.947 181.019 283.321 181.198 283.568 181.439C283.814 181.681 283.937 181.994 283.937 182.38C283.937 182.707 283.842 182.998 283.653 183.254C283.466 183.507 283.204 183.706 282.868 183.85C282.534 183.995 282.147 184.067 281.707 184.067C281.096 184.067 280.598 183.937 280.212 183.676C279.826 183.414 279.589 183.041 279.502 182.558L280.528 182.402C280.592 182.669 280.723 182.872 280.922 183.009C281.121 183.144 281.38 183.211 281.7 183.211C282.048 183.211 282.326 183.139 282.534 182.995C282.743 182.848 282.847 182.669 282.847 182.458C282.847 182.288 282.783 182.145 282.655 182.029C282.53 181.913 282.337 181.825 282.076 181.766L281.153 181.564C280.644 181.448 280.267 181.263 280.024 181.01C279.782 180.756 279.661 180.435 279.661 180.047C279.661 179.725 279.751 179.444 279.931 179.202C280.111 178.961 280.36 178.772 280.677 178.637C280.994 178.5 281.358 178.431 281.767 178.431C282.357 178.431 282.821 178.559 283.159 178.815C283.498 179.068 283.722 179.408 283.83 179.834ZM292.513 176.684H293.614V181.468C293.614 181.977 293.494 182.428 293.255 182.821C293.016 183.211 292.68 183.519 292.247 183.744C291.813 183.967 291.306 184.078 290.723 184.078C290.143 184.078 289.637 183.967 289.203 183.744C288.77 183.519 288.434 183.211 288.195 182.821C287.956 182.428 287.836 181.977 287.836 181.468V176.684H288.933V181.379C288.933 181.708 289.006 182 289.15 182.256C289.297 182.512 289.504 182.713 289.771 182.86C290.039 183.004 290.356 183.076 290.723 183.076C291.093 183.076 291.411 183.004 291.678 182.86C291.948 182.713 292.154 182.512 292.296 182.256C292.441 182 292.513 181.708 292.513 181.379V176.684ZM296.186 180.718V183.957H295.124V178.502H296.143V179.39H296.211C296.336 179.101 296.533 178.869 296.8 178.694C297.07 178.519 297.41 178.431 297.819 178.431C298.191 178.431 298.516 178.51 298.796 178.666C299.075 178.82 299.292 179.049 299.446 179.355C299.6 179.66 299.676 180.038 299.676 180.488V183.957H298.615V180.615C298.615 180.22 298.512 179.911 298.306 179.689C298.1 179.464 297.817 179.351 297.457 179.351C297.211 179.351 296.992 179.404 296.8 179.511C296.611 179.618 296.46 179.774 296.349 179.98C296.24 180.183 296.186 180.43 296.186 180.718ZM302.162 176.684V183.957H301.1V176.684H302.162ZM305.888 184.067C305.377 184.067 304.931 183.95 304.55 183.716C304.168 183.481 303.872 183.153 303.662 182.732C303.451 182.31 303.346 181.818 303.346 181.255C303.346 180.689 303.451 180.194 303.662 179.77C303.872 179.346 304.168 179.017 304.55 178.783C304.931 178.549 305.377 178.431 305.888 178.431C306.4 178.431 306.846 178.549 307.227 178.783C307.608 179.017 307.904 179.346 308.115 179.77C308.326 180.194 308.431 180.689 308.431 181.255C308.431 181.818 308.326 182.31 308.115 182.732C307.904 183.153 307.608 183.481 307.227 183.716C306.846 183.95 306.4 184.067 305.888 184.067ZM305.892 183.176C306.223 183.176 306.498 183.088 306.716 182.913C306.934 182.738 307.095 182.505 307.199 182.213C307.305 181.922 307.358 181.601 307.358 181.251C307.358 180.903 307.305 180.583 307.199 180.292C307.095 179.999 306.934 179.763 306.716 179.586C306.498 179.408 306.223 179.319 305.892 179.319C305.558 179.319 305.281 179.408 305.061 179.586C304.843 179.763 304.681 179.999 304.574 180.292C304.47 180.583 304.418 180.903 304.418 181.251C304.418 181.601 304.47 181.922 304.574 182.213C304.681 182.505 304.843 182.738 305.061 182.913C305.281 183.088 305.558 183.176 305.892 183.176ZM311.914 184.067C311.386 184.067 310.931 183.948 310.55 183.708C310.171 183.467 309.88 183.134 309.676 182.711C309.473 182.287 309.371 181.801 309.371 181.255C309.371 180.701 309.475 180.212 309.684 179.788C309.892 179.362 310.185 179.029 310.564 178.79C310.943 178.551 311.389 178.431 311.903 178.431C312.317 178.431 312.687 178.508 313.011 178.662C313.335 178.814 313.597 179.027 313.796 179.301C313.997 179.576 314.117 179.897 314.154 180.264H313.121C313.064 180.008 312.934 179.788 312.73 179.603C312.529 179.419 312.259 179.326 311.921 179.326C311.625 179.326 311.366 179.404 311.143 179.561C310.923 179.715 310.751 179.935 310.628 180.221C310.505 180.505 310.444 180.842 310.444 181.23C310.444 181.627 310.504 181.971 310.625 182.26C310.745 182.548 310.916 182.772 311.136 182.931C311.359 183.089 311.62 183.169 311.921 183.169C312.122 183.169 312.304 183.132 312.468 183.059C312.633 182.983 312.772 182.875 312.883 182.735C312.997 182.596 313.076 182.428 313.121 182.231H314.154C314.117 182.584 314.002 182.899 313.81 183.176C313.618 183.453 313.361 183.671 313.039 183.829C312.72 183.988 312.345 184.067 311.914 184.067ZM316.267 182.107L316.259 180.811H316.444L318.617 178.502H319.889L317.41 181.13H317.243L316.267 182.107ZM315.29 183.957V176.684H316.352V183.957H315.29ZM318.735 183.957L316.781 181.365L317.513 180.623L320.038 183.957H318.735ZM322.983 184.067C322.445 184.067 321.982 183.952 321.594 183.723C321.208 183.491 320.91 183.165 320.699 182.746C320.491 182.325 320.387 181.831 320.387 181.265C320.387 180.707 320.491 180.214 320.699 179.788C320.91 179.362 321.203 179.029 321.58 178.79C321.959 178.551 322.401 178.431 322.908 178.431C323.216 178.431 323.514 178.482 323.803 178.584C324.092 178.686 324.351 178.846 324.581 179.064C324.81 179.281 324.991 179.564 325.124 179.912C325.257 180.258 325.323 180.678 325.323 181.173V181.549H320.987V180.754H324.282C324.282 180.475 324.225 180.227 324.112 180.012C323.998 179.794 323.838 179.622 323.632 179.497C323.429 179.371 323.19 179.309 322.915 179.309C322.617 179.309 322.356 179.382 322.134 179.529C321.914 179.673 321.743 179.863 321.623 180.097C321.504 180.329 321.445 180.581 321.445 180.853V181.475C321.445 181.839 321.509 182.15 321.637 182.405C321.767 182.661 321.948 182.856 322.18 182.991C322.412 183.124 322.683 183.19 322.993 183.19C323.194 183.19 323.378 183.162 323.544 183.105C323.709 183.046 323.853 182.958 323.973 182.842C324.094 182.726 324.186 182.583 324.25 182.412L325.255 182.593C325.175 182.889 325.03 183.149 324.822 183.371C324.616 183.591 324.357 183.763 324.044 183.886C323.734 184.007 323.38 184.067 322.983 184.067ZM328.543 184.064C328.102 184.064 327.709 183.951 327.364 183.726C327.021 183.499 326.751 183.176 326.554 182.757C326.36 182.335 326.263 181.83 326.263 181.24C326.263 180.651 326.361 180.147 326.558 179.728C326.757 179.309 327.029 178.988 327.374 178.765C327.72 178.543 328.112 178.431 328.55 178.431C328.888 178.431 329.161 178.488 329.367 178.602C329.575 178.713 329.736 178.843 329.85 178.993C329.966 179.142 330.056 179.273 330.119 179.387H330.183V176.684H331.245V183.957H330.208V183.108H330.119C330.056 183.224 329.963 183.357 329.843 183.506C329.724 183.655 329.561 183.785 329.352 183.897C329.144 184.008 328.874 184.064 328.543 184.064ZM328.777 183.158C329.083 183.158 329.341 183.078 329.551 182.917C329.764 182.753 329.925 182.527 330.034 182.238C330.146 181.949 330.201 181.613 330.201 181.23C330.201 180.851 330.147 180.52 330.038 180.235C329.929 179.951 329.769 179.73 329.558 179.571C329.348 179.413 329.087 179.333 328.777 179.333C328.458 179.333 328.191 179.416 327.978 179.582C327.765 179.748 327.604 179.974 327.495 180.26C327.389 180.547 327.335 180.87 327.335 181.23C327.335 181.594 327.39 181.922 327.499 182.213C327.608 182.505 327.769 182.735 327.982 182.906C328.197 183.074 328.462 183.158 328.777 183.158Z" fill="white"/>
</g>
<defs>
<filter id="filter0_d_0_1" x="4" y="57.957" width="330" height="318" filterUnits="userSpaceOnUse" color-interpolation-filters="sRGB">
<feFlood flood-opacity="0" result="BackgroundImageFix"/>
<feColorMatrix in="SourceAlpha" type="matrix" values="0 0 0 0 0 0 0 0 0 0 0 0 0 0 0 0 0 0 127 0" result="hardAlpha"/>
<feOffset dy="37"/>
<feGaussianBlur stdDeviation="33.5"/>
<feComposite in2="hardAlpha" operator="out"/>
<feColorMatrix type="matrix" values="0 0 0 0 0 0 0 0 0 0 0 0 0 0 0 0 0 0 0.1 0"/>
<feBlend mode="normal" in2="BackgroundImageFix" result="effect1_dropShadow_0_1"/>
<feBlend mode="normal" in="SourceGraphic" in2="effect1_dropShadow_0_1" result="shape"/>
</filter>
<filter id="filter1_d_0_1" x="94" y="123.957" width="326" height="198" filterUnits="userSpaceOnUse" color-interpolation-filters="sRGB">
<feFlood flood-opacity="0" result="BackgroundImageFix"/>
<feColorMatrix in="SourceAlpha" type="matrix" values="0 0 0 0 0 0 0 0 0 0 0 0 0 0 0 0 0 0 127 0" result="hardAlpha"/>
<feOffset dy="43"/>
<feGaussianBlur stdDeviation="37.5"/>
<feComposite in2="hardAlpha" operator="out"/>
<feColorMatrix type="matrix" values="0 0 0 0 0 0 0 0 0 0 0 0 0 0 0 0 0 0 0.15 0"/>
<feBlend mode="normal" in2="BackgroundImageFix" result="effect1_dropShadow_0_1"/>
<feBlend mode="normal" in="SourceGraphic" in2="effect1_dropShadow_0_1" result="shape"/>
</filter>
<clipPath id="clip0_0_1">
<rect x="71" y="87.957" width="196" height="184" rx="12" fill="white"/>
</clipPath>
</defs>
</svg>
