<svg width="35" height="24" viewBox="0 0 35 24" fill="none" xmlns="http://www.w3.org/2000/svg">
<path d="M17.0988 15.1404C17.0788 14.9463 16.9931 14.7955 16.8416 14.688C16.6901 14.5805 16.4846 14.5268 16.2249 14.5268C16.0485 14.5268 15.8995 14.5508 15.778 14.599C15.6565 14.6455 15.5633 14.7105 15.4984 14.7939C15.4351 14.8773 15.4035 14.972 15.4035 15.0779C15.4002 15.1661 15.4193 15.2431 15.4609 15.3089C15.5042 15.3747 15.5633 15.4316 15.6382 15.4798C15.7131 15.5263 15.7996 15.5672 15.8978 15.6025C15.9961 15.6362 16.1009 15.6651 16.2124 15.6891L16.6718 15.795C16.8949 15.8432 17.0996 15.9073 17.286 15.9876C17.4724 16.0678 17.6339 16.1664 17.7704 16.2836C17.9068 16.4007 18.0125 16.5387 18.0874 16.6975C18.164 16.8563 18.2031 17.0384 18.2048 17.2438C18.2031 17.5454 18.1232 17.8069 17.9651 18.0283C17.8086 18.2481 17.5823 18.419 17.286 18.5409C16.9914 18.6612 16.636 18.7214 16.2199 18.7214C15.8071 18.7214 15.4476 18.6604 15.1414 18.5385C14.8368 18.4166 14.5987 18.2361 14.4273 17.997C14.2575 17.7564 14.1685 17.4588 14.1602 17.1042H15.2063C15.2179 17.2694 15.267 17.4074 15.3536 17.5181C15.4418 17.6272 15.5591 17.7098 15.7056 17.766C15.8537 17.8205 16.021 17.8478 16.2074 17.8478C16.3905 17.8478 16.5495 17.8222 16.6843 17.7708C16.8208 17.7195 16.9265 17.6481 17.0014 17.5566C17.0763 17.4652 17.1137 17.3601 17.1137 17.2414C17.1137 17.1307 17.0796 17.0376 17.0114 16.9622C16.9448 16.8868 16.8466 16.8226 16.7168 16.7697C16.5886 16.7167 16.4313 16.6686 16.2449 16.6253L15.6881 16.4905C15.257 16.3894 14.9167 16.2314 14.667 16.0164C14.4173 15.8014 14.2933 15.5119 14.295 15.1477C14.2933 14.8492 14.3757 14.5885 14.5421 14.3655C14.7103 14.1425 14.9408 13.9684 15.2337 13.8433C15.5267 13.7182 15.8596 13.6556 16.2324 13.6556C16.6119 13.6556 16.9431 13.7182 17.2261 13.8433C17.5107 13.9684 17.7321 14.1425 17.8902 14.3655C18.0483 14.5885 18.1299 14.8468 18.1349 15.1404H17.0988Z" fill="black"/>
<path d="M18.912 18.6516V14.9551H19.9756V18.6516H18.912ZM19.4463 14.4786C19.2881 14.4786 19.1525 14.4281 19.0393 14.327C18.9278 14.2243 18.872 14.1016 18.872 13.9588C18.872 13.8176 18.9278 13.6965 19.0393 13.5954C19.1525 13.4927 19.2881 13.4414 19.4463 13.4414C19.6044 13.4414 19.7392 13.4927 19.8507 13.5954C19.9639 13.6965 20.0205 13.8176 20.0205 13.9588C20.0205 14.1016 19.9639 14.2243 19.8507 14.327C19.7392 14.4281 19.6044 14.4786 19.4463 14.4786Z" fill="black"/>
<path d="M20.8276 18.6516V14.9551H21.8412V15.6073H21.8861C21.966 15.3907 22.0992 15.2199 22.2856 15.0947C22.472 14.9696 22.6951 14.907 22.9547 14.907C23.2177 14.907 23.4416 14.9704 23.6263 15.0971C23.8111 15.2223 23.9343 15.3923 23.9958 15.6073H24.0358C24.114 15.3955 24.2555 15.2263 24.4602 15.0995C24.6666 14.9712 24.9105 14.907 25.1918 14.907C25.5496 14.907 25.8401 15.0169 26.0631 15.2367C26.2878 15.4549 26.4002 15.7645 26.4002 16.1656V18.6516H25.3391V16.3678C25.3391 16.1624 25.2825 16.0084 25.1693 15.9057C25.0561 15.803 24.9146 15.7517 24.7449 15.7517C24.5518 15.7517 24.4011 15.8111 24.293 15.9298C24.1848 16.0469 24.1307 16.2017 24.1307 16.3943V18.6516H23.0995V16.3461C23.0995 16.1648 23.0454 16.0204 22.9373 15.9129C22.8307 15.8055 22.6901 15.7517 22.5153 15.7517C22.3971 15.7517 22.2906 15.7806 22.1957 15.8383C22.1025 15.8945 22.0285 15.9739 21.9735 16.0766C21.9186 16.1777 21.8911 16.2964 21.8911 16.4328V18.6516H20.8276Z" fill="black"/>
<path d="M15.9054 11.7609C15.5436 11.7609 15.2321 11.6834 14.971 11.5285C14.7114 11.3719 14.5113 11.1508 14.3709 10.8651C14.2304 10.5777 14.1602 10.238 14.1602 9.84574C14.1602 9.46319 14.2304 9.12746 14.3709 8.83853C14.5113 8.5496 14.7091 8.32443 14.9641 8.16302C15.2206 8.0016 15.5214 7.9209 15.8665 7.9209C16.0986 7.9209 16.3146 7.96044 16.5147 8.03954C16.7162 8.11701 16.8918 8.23404 17.0415 8.39061C17.1926 8.54718 17.3102 8.7441 17.3942 8.98138C17.4782 9.21704 17.5202 9.49305 17.5202 9.80942V10.0927H14.5495V9.45351H16.6017C16.6017 9.30501 16.5712 9.17346 16.5101 9.05886C16.449 8.94425 16.3643 8.85467 16.2559 8.7901C16.149 8.72392 16.0245 8.69084 15.8825 8.69084C15.7344 8.69084 15.6031 8.72715 15.4886 8.79979C15.3756 8.87081 15.287 8.96685 15.2229 9.08791C15.1588 9.20735 15.1259 9.34052 15.1244 9.48741V10.0951C15.1244 10.2791 15.1565 10.4381 15.2206 10.5721C15.2863 10.7061 15.3786 10.8094 15.4977 10.882C15.6168 10.9546 15.7581 10.991 15.9215 10.991C16.0299 10.991 16.1291 10.9748 16.2192 10.9425C16.3093 10.9103 16.3864 10.8618 16.4505 10.7973C16.5147 10.7327 16.5635 10.6536 16.5971 10.56L17.4995 10.6229C17.4537 10.8521 17.3598 11.0523 17.2178 11.2234C17.0773 11.3929 16.8956 11.5252 16.6727 11.6205C16.4513 11.7141 16.1955 11.7609 15.9054 11.7609Z" fill="black"/>
<path fill-rule="evenodd" clip-rule="evenodd" d="M8.11081 0.0841821C7.36613 0.229142 6.73198 0.652184 4.18084 2.70546C1.25769 5.05816 0.85675 5.42627 0.508571 6.07754C-0.00951723 7.04666 1.49914e-05 6.89804 1.49914e-05 13.9968C1.49914e-05 21.1051 -0.0103533 20.9455 0.514257 21.9266C0.826481 22.5106 1.56674 23.2346 2.15623 23.5323C3.13195 24.0252 2.30265 23.9998 17.3922 23.9998C29.5547 23.9998 31.2972 23.9843 31.729 23.8722C33.1712 23.4976 34.282 22.3866 34.6597 20.9411C34.8468 20.2252 34.8468 3.76719 34.6597 3.05131C34.282 1.6058 33.1712 0.494804 31.729 0.120276C31.2984 0.00849286 29.8269 -0.00617796 19.8623 0.00182441C13.6059 0.00682589 8.31777 0.0439201 8.11081 0.0841821ZM31.4912 2.87368C31.6183 2.9682 31.7997 3.14909 31.8945 3.27571C32.066 3.5047 32.0669 3.55113 32.0669 11.9962C32.0669 20.4413 32.066 20.4877 31.8945 20.7167C31.7997 20.8433 31.6183 21.0242 31.4912 21.1188L31.2603 21.2906H17.3922H3.5242L3.29325 21.1188C3.16624 21.0242 2.98479 20.8433 2.88997 20.7167C2.71981 20.4897 2.71722 20.4027 2.69514 14.1108C2.67466 8.28895 2.68486 7.70928 2.81287 7.44036C2.91463 7.22655 3.67128 6.56452 5.57481 5.02356C7.01686 3.8563 8.31843 2.84825 8.46727 2.78348C8.69671 2.68362 10.4531 2.66845 19.9992 2.6837C31.2284 2.70171 31.261 2.70229 31.4912 2.87368ZM4.80378 8.11073C4.24974 8.35472 3.93175 8.99257 4.05023 9.62226C4.12348 10.0115 4.54064 10.4722 4.92026 10.583C5.12035 10.6415 6.25737 10.6635 8.20931 10.6466C11.0708 10.6219 11.202 10.6138 11.4234 10.4489C11.8621 10.1222 11.999 9.85583 11.999 9.32876C11.999 8.80169 11.8621 8.53527 11.4234 8.20859C11.2013 8.04321 11.0771 8.03596 8.1257 8.01762C5.70333 8.00245 5.00521 8.02204 4.80378 8.11073ZM4.80378 12.1119C4.24974 12.3559 3.93175 12.9938 4.05023 13.6234C4.12348 14.0126 4.54064 14.4734 4.92026 14.5842C5.12035 14.6427 6.25737 14.6647 8.20931 14.6478C11.0708 14.6231 11.202 14.615 11.4234 14.4501C11.8621 14.1234 11.999 13.857 11.999 13.3299C11.999 12.8029 11.8621 12.5365 11.4234 12.2098C11.2013 12.0444 11.0771 12.0371 8.1257 12.0188C5.70333 12.0036 5.00521 12.0232 4.80378 12.1119ZM4.80378 16.1131C4.24974 16.3571 3.93175 16.9949 4.05023 17.6246C4.12348 18.0138 4.54064 18.4746 4.92026 18.5854C5.12035 18.6439 6.25737 18.6659 8.20931 18.6489C11.0708 18.6243 11.202 18.6162 11.4234 18.4513C11.8621 18.1246 11.999 17.8582 11.999 17.3311C11.999 16.8041 11.8621 16.5376 11.4234 16.211C11.2013 16.0456 11.0771 16.0383 8.1257 16.02C5.70333 16.0048 5.00521 16.0244 4.80378 16.1131Z" fill="black"/>
</svg>
