<svg width="24" height="24" viewBox="0 0 24 24" fill="none" xmlns="http://www.w3.org/2000/svg">
<path fill-rule="evenodd" clip-rule="evenodd" d="M4.10752 2.06003C4.06592 2.09172 3.57478 2.85691 3.01608 3.7605C1.91676 5.53829 1.88911 5.60181 2.11526 5.82797C2.2617 5.97445 2.47227 5.9784 2.62819 5.8376C2.69251 5.77952 3.01059 5.30021 3.33506 4.77245L3.92493 3.81299V6.99317C3.92493 10.4864 3.91714 10.3894 4.20654 10.4903C4.37058 10.5475 4.46725 10.5235 4.61744 10.3883L4.72308 10.2932V6.26155V2.22994L4.60782 2.11473C4.48096 1.98782 4.23734 1.9612 4.10752 2.06003ZM6.43463 2.11473L6.31936 2.22994V6.2484V10.2669L6.43463 10.3821C6.57331 10.5208 6.82694 10.5365 6.96755 10.4152C7.13469 10.2709 9.04864 7.11927 9.05258 6.9819C9.05775 6.79945 8.9738 6.66935 8.80614 6.59987C8.52139 6.48193 8.42651 6.57893 7.75133 7.67807L7.14098 8.67166L7.11751 5.42528L7.09403 2.17895L6.98318 2.08919C6.82511 1.96125 6.57651 1.9728 6.43463 2.11473ZM18.6839 4.44047C18.6285 4.46277 18.5493 4.52953 18.5078 4.58878C18.4392 4.68672 18.4324 5.46453 18.4324 13.1862C18.4324 22.2474 18.4236 21.8856 18.6458 21.9708C18.6875 21.9869 19.4076 22 20.2459 22H21.7701L21.8853 21.8847L22.0005 21.7695V13.2032V4.637L21.8561 4.51545L21.7117 4.3939L20.248 4.39685C19.4431 4.3985 18.7392 4.41812 18.6839 4.44047ZM21.2024 13.1969V21.2019H20.2164H19.2305V13.1969V5.19204H20.2164H21.2024V13.1969ZM13.1378 9.77756C13.105 9.7908 13.0469 9.86202 13.0087 9.93587C12.9485 10.0523 12.9393 10.8435 12.9393 15.8738C12.9393 20.1961 12.9532 21.7037 12.9939 21.7801C13.1088 21.9959 13.1175 21.9969 14.7504 21.9985L16.3032 22L16.4171 21.8788L16.5309 21.7577V15.8731V9.98846L16.4171 9.86733L16.3032 9.74615L14.7504 9.74986C13.8963 9.75188 13.1706 9.76437 13.1378 9.77756ZM15.7562 15.8731V21.2019H14.7468H13.7374V15.8731V10.5443H14.7468H15.7562V15.8731ZM7.58344 13.1538L7.46963 13.2749V17.5163V21.7577L7.58344 21.8788L7.69729 22L9.25015 21.9985C10.8831 21.9969 10.8917 21.9959 11.0067 21.7801C11.047 21.7043 11.0613 20.5901 11.0613 17.5171C11.0613 13.1009 11.0633 13.1445 10.8479 13.0618C10.8061 13.0458 10.0801 13.0326 9.23461 13.0326H7.69729L7.58344 13.1538ZM10.2631 17.5163V21.2019H9.27719H8.29125V17.5163V13.8308H9.27719H10.2631V17.5163ZM2.11526 17.2325L2 17.3477V19.5586V21.7695L2.11526 21.8847L2.23048 22H3.75465C4.59293 22 5.313 21.9869 5.35478 21.9708C5.55916 21.8924 5.56817 21.7896 5.56817 19.5339V17.3917L5.43094 17.2545L5.2937 17.1172H3.76207H2.23048L2.11526 17.2325ZM4.77003 19.5586V21.2019H3.78409H2.79814V19.5586V17.9154H3.78409H4.77003V19.5586Z" fill="#555555"/>
</svg>
