<svg width="24" height="24" viewBox="0 0 24 24" fill="none" xmlns="http://www.w3.org/2000/svg">
<g clip-path="url(#clip0_27_8955)">
<path d="M18 2.475C16.2375 1.3875 14.2125 0.75 12 0.75V2.475H18Z" fill="#ED4C5C"/>
<path d="M12 4.19961H20.1C19.4625 3.56211 18.75 2.96211 18 2.47461H12V4.19961Z" fill="white"/>
<path d="M12 5.9252H21.4875C21.075 5.2877 20.625 4.7252 20.1375 4.2002H12V5.9252Z" fill="#ED4C5C"/>
<path d="M12 7.6498H22.3875C22.125 7.0498 21.825 6.4498 21.4875 5.9248H12V7.6498Z" fill="white"/>
<path d="M12 9.37539H22.95C22.8 8.77539 22.6125 8.21289 22.3875 7.65039H12V9.37539Z" fill="#ED4C5C"/>
<path d="M12 11.1371H23.2125C23.175 10.5371 23.0625 9.97461 22.95 9.41211H12V11.1371Z" fill="white"/>
<path d="M23.2125 11.1377H12V12.0002H0.75C0.75 12.3002 0.75 12.5627 0.7875 12.8627H23.2125C23.25 12.5627 23.25 12.3002 23.25 12.0002C23.25 11.7002 23.25 11.4002 23.2125 11.1377Z" fill="#ED4C5C"/>
<path d="M1.04961 14.5873H22.9496C23.0996 14.0248 23.1746 13.4623 23.2121 12.8623H0.787109C0.824609 13.4248 0.937109 14.0248 1.04961 14.5873Z" fill="white"/>
<path d="M1.61328 16.3129H22.3883C22.6133 15.7504 22.8008 15.1879 22.9508 14.5879H1.05078C1.20078 15.1879 1.38828 15.7504 1.61328 16.3129Z" fill="#ED4C5C"/>
<path d="M2.51328 18.0375H21.4883C21.8258 17.475 22.1258 16.9125 22.3883 16.3125H1.61328C1.87578 16.9125 2.17578 17.475 2.51328 18.0375Z" fill="white"/>
<path d="M3.86172 19.7621H20.1367C20.6242 19.2371 21.1117 18.6371 21.4867 18.0371H2.51172C2.88672 18.6746 3.37422 19.2371 3.86172 19.7621Z" fill="#ED4C5C"/>
<path d="M5.96328 21.4877H18.0383C18.8258 21.0002 19.5008 20.4002 20.1383 19.7627H3.86328C4.50078 20.4377 5.21328 21.0002 5.96328 21.4877Z" fill="white"/>
<path d="M12.0004 23.2498C14.2129 23.2498 16.2754 22.6123 18.0379 21.4873H5.96289C7.72539 22.6123 9.78789 23.2498 12.0004 23.2498Z" fill="#ED4C5C"/>
<path d="M6 2.475C5.2125 2.9625 4.5 3.5625 3.8625 4.2C3.3375 4.725 2.8875 5.325 2.5125 5.925C2.175 6.4875 1.8375 7.05 1.6125 7.65C1.3875 8.2125 1.2 8.775 1.05 9.375C0.9 9.9375 0.825 10.5 0.7875 11.1C0.75 11.4 0.75 11.7 0.75 12H12V0.75C9.7875 0.75 7.7625 1.3875 6 2.475Z" fill="#428BC1"/>
<path d="M9.37539 1.125L9.56289 1.6875H10.1254L9.67539 2.0625L9.82539 2.625L9.37539 2.2875L8.92539 2.625L9.07539 2.0625L8.62539 1.6875H9.18789L9.37539 1.125ZM10.8754 3.375L11.0629 3.9375H11.6254L11.1754 4.3125L11.3254 4.875L10.8754 4.5375L10.4254 4.875L10.5754 4.3125L10.1254 3.9375H10.6879L10.8754 3.375ZM7.87539 3.375L8.06289 3.9375H8.62539L8.17539 4.3125L8.32539 4.875L7.87539 4.5375L7.42539 4.875L7.57539 4.3125L7.12539 3.9375H7.68789L7.87539 3.375ZM9.37539 5.625L9.56289 6.1875H10.1254L9.67539 6.5625L9.82539 7.125L9.37539 6.7875L8.92539 7.125L9.07539 6.5625L8.62539 6.1875H9.18789L9.37539 5.625ZM6.37539 5.625L6.56289 6.1875H7.12539L6.67539 6.5625L6.82539 7.125L6.37539 6.7875L5.92539 7.125L6.07539 6.5625L5.62539 6.1875H6.18789L6.37539 5.625ZM3.37539 5.625L3.56289 6.1875H4.12539L3.67539 6.5625L3.82539 7.125L3.37539 6.7875L2.92539 7.125L3.07539 6.5625L2.62539 6.1875H3.18789L3.37539 5.625ZM10.8754 7.875L11.0629 8.4375H11.6254L11.1754 8.8125L11.3254 9.375L10.8754 9.0375L10.4254 9.375L10.5754 8.8125L10.1254 8.4375H10.6879L10.8754 7.875ZM7.87539 7.875L8.06289 8.4375H8.62539L8.17539 8.8125L8.32539 9.375L7.87539 9.0375L7.42539 9.375L7.57539 8.8125L7.12539 8.4375H7.68789L7.87539 7.875ZM4.87539 7.875L5.06289 8.4375H5.62539L5.17539 8.8125L5.32539 9.375L4.87539 9.0375L4.42539 9.375L4.57539 8.8125L4.12539 8.4375H4.68789L4.87539 7.875ZM9.37539 10.125L9.56289 10.6875H10.1254L9.67539 11.0625L9.82539 11.625L9.37539 11.2875L8.92539 11.625L9.07539 11.0625L8.62539 10.6875H9.18789L9.37539 10.125ZM6.37539 10.125L6.56289 10.6875H7.12539L6.67539 11.0625L6.82539 11.625L6.37539 11.2875L5.92539 11.625L6.07539 11.0625L5.62539 10.6875H6.18789L6.37539 10.125ZM3.37539 10.125L3.56289 10.6875H4.12539L3.67539 11.0625L3.82539 11.625L3.37539 11.2875L2.92539 11.625L3.07539 11.0625L2.62539 10.6875H3.18789L3.37539 10.125ZM4.42539 4.875L4.87539 4.5375L5.32539 4.875L5.13789 4.3125L5.58789 3.9375H5.02539L4.87539 3.375L4.68789 3.9375H4.16289L4.61289 4.275L4.42539 4.875ZM1.42539 9.375L1.87539 9.0375L2.32539 9.375L2.13789 8.8125L2.58789 8.4375H2.06289L1.87539 7.875L1.68789 8.4375H1.31289C1.31289 8.475 1.27539 8.5125 1.27539 8.55L1.57539 8.775L1.42539 9.375Z" fill="white"/>
</g>
<defs>
<clipPath id="clip0_27_8955">
<rect width="24" height="24" fill="white"/>
</clipPath>
</defs>
</svg>
