<svg width="24" height="24" viewBox="0 0 24 24" fill="none" xmlns="http://www.w3.org/2000/svg">
<path fill-rule="evenodd" clip-rule="evenodd" d="M2.98496 4.05457C2.58707 4.17891 2.29807 4.43297 2.1181 4.81664L2.01646 5.03335L2.00486 6.42823C1.99368 7.77177 1.99622 7.8289 2.07379 7.9809C2.16409 8.15795 2.38732 8.29607 2.58304 8.29607C2.77693 8.29607 3.00204 8.15787 3.0905 7.98449C3.16455 7.83933 3.16916 7.75602 3.16916 6.56159C3.16916 5.46036 3.17725 5.2848 3.23055 5.2315C3.28384 5.1782 3.45941 5.17011 4.56064 5.17011C5.75507 5.17011 5.83838 5.1655 5.98354 5.09146C6.15692 5.00299 6.29512 4.77788 6.29512 4.584C6.29512 4.39011 6.15692 4.165 5.98354 4.07653C5.83756 4.00206 5.75804 3.99803 4.48949 4.0005C3.49696 4.00241 3.10695 4.01644 2.98496 4.05457ZM18.0081 4.07747C17.8432 4.16566 17.7049 4.39671 17.7049 4.584C17.7049 4.77788 17.8431 5.00299 18.0165 5.09146C18.1616 5.1655 18.2449 5.17011 19.4394 5.17011C20.5406 5.17011 20.7162 5.1782 20.7695 5.2315C20.8227 5.2848 20.8308 5.46036 20.8308 6.56159C20.8308 7.75602 20.8354 7.83933 20.9095 7.98449C20.998 8.15787 21.2231 8.29607 21.417 8.29607C21.6127 8.29607 21.8359 8.15795 21.9262 7.9809C22.0038 7.8289 22.0063 7.77177 21.9951 6.42823L21.9835 5.03335L21.8806 4.81375C21.7358 4.50495 21.5291 4.29305 21.2281 4.1448L20.9695 4.01741L19.5619 4.00839C18.2197 3.99975 18.1474 4.00296 18.0081 4.07747ZM4.64465 6.46199C4.55537 6.50916 4.468 6.59903 4.41998 6.69316C4.34253 6.845 4.3414 6.91561 4.3414 11.6174C4.3414 16.3211 4.34249 16.3898 4.42005 16.5418C4.50852 16.7152 4.73363 16.8534 4.92751 16.8534C5.1214 16.8534 5.34651 16.7152 5.43497 16.5418C5.51254 16.3898 5.51363 16.3211 5.51363 11.6174C5.51363 6.9137 5.51254 6.84504 5.43497 6.693C5.29079 6.41038 4.93783 6.30722 4.64465 6.46199ZM6.98912 6.46199C6.89984 6.50916 6.81247 6.59903 6.76445 6.69316C6.68762 6.84379 6.68587 6.91846 6.68587 10.0544C6.68587 13.1917 6.68759 13.265 6.76452 13.4158C6.85299 13.5892 7.0781 13.7274 7.27198 13.7274C7.46587 13.7274 7.69098 13.5892 7.77944 13.4158C7.85638 13.265 7.8581 13.1917 7.8581 10.0544C7.8581 6.91717 7.85638 6.84383 7.77944 6.693C7.63526 6.41038 7.2823 6.30722 6.98912 6.46199ZM9.33359 6.46199C9.24431 6.50916 9.15694 6.59903 9.10892 6.69316C9.03147 6.845 9.03034 6.91561 9.03034 11.6174C9.03034 16.3211 9.03143 16.3898 9.10899 16.5418C9.19746 16.7152 9.42257 16.8534 9.61645 16.8534C9.81034 16.8534 10.0355 16.7152 10.1239 16.5418C10.2015 16.3898 10.2026 16.3211 10.2026 11.6174C10.2026 6.9137 10.2015 6.84504 10.1239 6.693C9.97973 6.41038 9.62677 6.30722 9.33359 6.46199ZM11.6781 6.46199C11.5888 6.50916 11.5014 6.59903 11.4534 6.69316C11.3766 6.84379 11.3748 6.91846 11.3748 10.0544C11.3748 13.1917 11.3765 13.265 11.4535 13.4158C11.5419 13.5892 11.767 13.7274 11.9609 13.7274C12.1548 13.7274 12.3799 13.5892 12.4684 13.4158C12.5453 13.265 12.547 13.1917 12.547 10.0544C12.547 6.91717 12.5453 6.84383 12.4684 6.693C12.3242 6.41038 11.9712 6.30722 11.6781 6.46199ZM14.0225 6.46199C13.9332 6.50916 13.8459 6.59903 13.7979 6.69316C13.721 6.84379 13.7193 6.91846 13.7193 10.0544C13.7193 13.1917 13.721 13.265 13.7979 13.4158C13.8864 13.5892 14.1115 13.7274 14.3054 13.7274C14.4993 13.7274 14.7244 13.5892 14.8129 13.4158C14.8898 13.265 14.8915 13.1917 14.8915 10.0544C14.8915 6.91717 14.8898 6.84383 14.8129 6.693C14.6687 6.41038 14.3157 6.30722 14.0225 6.46199ZM16.367 6.46199C16.2777 6.50916 16.1903 6.59903 16.1423 6.69316C16.0655 6.84379 16.0637 6.91846 16.0637 10.0544C16.0637 13.1917 16.0655 13.265 16.1424 13.4158C16.2309 13.5892 16.456 13.7274 16.6499 13.7274C16.8438 13.7274 17.0689 13.5892 17.1573 13.4158C17.2343 13.265 17.236 13.1917 17.236 10.0544C17.236 6.91717 17.2343 6.84383 17.1573 6.693C17.0131 6.41038 16.6602 6.30722 16.367 6.46199ZM18.7115 6.46199C18.6222 6.50916 18.5348 6.59903 18.4868 6.69316C18.4094 6.845 18.4082 6.91561 18.4082 11.6174C18.4082 16.3211 18.4093 16.3898 18.4869 16.5418C18.5753 16.7152 18.8004 16.8534 18.9943 16.8534C19.1882 16.8534 19.4133 16.7152 19.5018 16.5418C19.5794 16.3898 19.5805 16.3211 19.5805 11.6174C19.5805 6.9137 19.5794 6.84504 19.5018 6.693C19.3576 6.41038 19.0047 6.30722 18.7115 6.46199ZM2.30018 15.0193C2.20973 15.0671 2.12345 15.1565 2.07367 15.2541C1.99626 15.4058 1.99368 15.4635 2.00486 16.8075L2.01646 18.2033L2.14385 18.462C2.29209 18.7629 2.504 18.9696 2.8128 19.1144L3.0324 19.2174L4.42728 19.229C5.77082 19.2402 5.82795 19.2376 5.97995 19.1601C6.15699 19.0698 6.29512 18.8465 6.29512 18.6508C6.29512 18.4569 6.15692 18.2318 5.98354 18.1434C5.83838 18.0693 5.75507 18.0647 4.56064 18.0647C3.45941 18.0647 3.28384 18.0566 3.23055 18.0033C3.17725 17.95 3.16916 17.7745 3.16916 16.6732C3.16916 15.4788 3.16455 15.3955 3.0905 15.2503C2.94632 14.9677 2.59336 14.8645 2.30018 15.0193ZM21.1341 15.0193C21.0448 15.0665 20.9574 15.1563 20.9094 15.2505C20.8355 15.3954 20.8308 15.4793 20.8308 16.6732C20.8308 17.7745 20.8227 17.95 20.7695 18.0033C20.7162 18.0566 20.5406 18.0647 19.4394 18.0647C18.2449 18.0647 18.1616 18.0693 18.0165 18.1434C17.8431 18.2318 17.7049 18.4569 17.7049 18.6508C17.7049 18.8465 17.843 19.0698 18.0201 19.1601C18.1721 19.2376 18.2292 19.2402 19.5727 19.229L20.9676 19.2174L21.1872 19.1144C21.496 18.9696 21.7079 18.7629 21.8562 18.462L21.9835 18.2033L21.9951 16.8075C22.0063 15.463 22.0038 15.4059 21.9262 15.2539C21.7802 14.9676 21.4291 14.8636 21.1341 15.0193ZM6.98912 15.0975C6.74936 15.2241 6.68587 15.3994 6.68587 15.9351C6.68587 16.3115 6.69911 16.4135 6.76452 16.5418C6.85299 16.7152 7.0781 16.8534 7.27198 16.8534C7.46587 16.8534 7.69098 16.7152 7.77944 16.5418C7.84486 16.4135 7.8581 16.3115 7.8581 15.9351C7.8581 15.3922 7.79507 15.2223 7.54652 15.0955C7.354 14.9974 7.17766 14.9979 6.98912 15.0975ZM11.6781 15.0975C11.4383 15.2241 11.3748 15.3994 11.3748 15.9351C11.3748 16.3115 11.3881 16.4135 11.4535 16.5418C11.5419 16.7152 11.767 16.8534 11.9609 16.8534C12.1548 16.8534 12.3799 16.7152 12.4684 16.5418C12.5338 16.4135 12.547 16.3115 12.547 15.9351C12.547 15.3922 12.484 15.2223 12.2355 15.0955C12.0429 14.9974 11.8666 14.9979 11.6781 15.0975ZM14.0225 15.0975C13.7828 15.2241 13.7193 15.3994 13.7193 15.9351C13.7193 16.3115 13.7325 16.4135 13.7979 16.5418C13.8864 16.7152 14.1115 16.8534 14.3054 16.8534C14.4993 16.8534 14.7244 16.7152 14.8129 16.5418C14.8783 16.4135 14.8915 16.3115 14.8915 15.9351C14.8915 15.3922 14.8285 15.2223 14.5799 15.0955C14.3874 14.9974 14.2111 14.9979 14.0225 15.0975ZM16.367 15.0975C16.1272 15.2241 16.0637 15.3994 16.0637 15.9351C16.0637 16.3115 16.077 16.4135 16.1424 16.5418C16.2309 16.7152 16.456 16.8534 16.6499 16.8534C16.8438 16.8534 17.0689 16.7152 17.1573 16.5418C17.2227 16.4135 17.236 16.3115 17.236 15.9351C17.236 15.3922 17.173 15.2223 16.9244 15.0955C16.7319 14.9974 16.5555 14.9979 16.367 15.0975Z" fill="#555555"/>
</svg>
