<svg width="24" height="24" viewBox="0 0 24 24" fill="none" xmlns="http://www.w3.org/2000/svg">
<path fill-rule="evenodd" clip-rule="evenodd" d="M6.74798 2.03065C6.33504 2.12925 5.81073 2.53577 5.60209 2.91909C5.40363 3.28371 5.36965 3.51574 5.36965 4.50536C5.36965 5.48775 5.38705 5.58536 5.57616 5.6637C5.71131 5.7197 5.83233 5.68882 5.94286 5.57017C6.01768 5.48987 6.02316 5.42235 6.02316 4.5801C6.02316 3.565 6.05542 3.37765 6.28133 3.08145C6.36609 2.97031 6.50876 2.85774 6.67189 2.77332L6.92888 2.64029H10.9245H14.9201L15.177 2.77332C15.3402 2.85774 15.4828 2.97031 15.5676 3.08145C15.7866 3.36854 15.8258 3.57591 15.8258 4.44671C15.8258 5.21029 15.8267 5.21809 15.926 5.31743C16.0587 5.45009 16.2464 5.45009 16.379 5.31743C16.4788 5.21772 16.4793 5.21274 16.4793 4.40705C16.4793 3.52289 16.4406 3.27505 16.2468 2.91909C16.0935 2.63735 15.7151 2.29336 15.3883 2.13852L15.111 2.0072L11.0062 2.00063C8.70062 1.99691 6.83408 2.01006 6.74798 2.03065ZM19.2363 2.92461C19.1913 2.94384 18.7816 3.33525 18.3258 3.79438L17.497 4.6292L17.5023 5.35672L17.5076 6.08423L14.4305 9.16148L11.3535 12.2387H10.5998H9.84618L8.99662 13.0882C8.01869 14.0662 8.10572 13.8694 8.22597 14.831C8.29663 15.3957 8.31072 15.4494 8.41083 15.5356C8.47369 15.5896 8.57282 15.6288 8.64687 15.6288C8.75715 15.6288 8.86453 15.5394 9.43574 14.9719L10.097 14.3151L10.6768 14.396C10.9957 14.4405 11.2629 14.4834 11.2707 14.4912C11.2783 14.4991 11.3235 14.7715 11.3709 15.0965L11.4571 15.6875L10.8028 16.3427C10.2025 16.9438 10.1484 17.0099 10.1484 17.1435C10.1484 17.411 10.2424 17.4545 11.0195 17.5464C11.4513 17.5975 11.7362 17.6141 11.7936 17.5914C11.8435 17.5718 12.2582 17.1791 12.7151 16.7189L13.5459 15.8823L13.5337 15.1616L13.5215 14.441L16.6035 11.3589L19.6854 8.27679H20.4333H21.1812L21.9918 7.47768C22.4376 7.03815 22.824 6.62656 22.8503 6.56297C22.8883 6.47123 22.8817 6.30598 22.8181 5.76095C22.7427 5.11455 22.7316 5.06905 22.6288 4.98062C22.5653 4.92597 22.4663 4.88672 22.392 4.88672C22.2817 4.88672 22.1742 4.97629 21.6013 5.54542L20.9382 6.20411L20.3594 6.12055C20.0411 6.0746 19.7733 6.02963 19.7643 6.02068C19.7554 6.0117 19.7095 5.74078 19.6624 5.41864L19.5768 4.83297L20.2336 4.17526C20.7917 3.61651 20.8905 3.499 20.8905 3.39431C20.8905 3.10849 20.7559 3.04481 19.9919 2.96909C19.7335 2.94344 19.4762 2.91509 19.4201 2.90606C19.3639 2.89704 19.2812 2.90537 19.2363 2.92461ZM9.03072 3.54184C8.94769 3.60711 8.9231 3.6625 8.9231 3.78393C8.9231 3.90536 8.94769 3.96074 9.03072 4.02601C9.13635 4.10909 9.17637 4.11068 11.1769 4.11068H13.2155L13.3157 4.01041C13.4767 3.84944 13.4458 3.61835 13.2496 3.51693C13.1529 3.46685 12.8098 3.45717 11.1362 3.45717C9.17686 3.45717 9.13627 3.45881 9.03072 3.54184ZM19.798 3.61377C19.8562 3.63681 19.7817 3.72969 19.3997 4.1106C18.9581 4.55098 18.9299 4.58876 18.9299 4.74124C18.9299 4.97727 19.1329 6.40094 19.1787 6.48663C19.2455 6.61125 19.3446 6.63723 20.2365 6.7636C20.8976 6.85725 21.124 6.87584 21.1909 6.84194C21.2391 6.81751 21.4755 6.60283 21.7162 6.36492C21.9569 6.127 22.1621 5.94063 22.172 5.95072C22.1819 5.96084 22.1957 6.04764 22.2025 6.14366L22.215 6.31823L21.5629 6.97202L20.9109 7.62582L20.1806 7.61986L19.4504 7.61393L18.2405 8.81324C14.3027 12.7168 12.955 14.0682 12.9037 14.1647C12.8575 14.2516 12.8512 14.405 12.872 14.9338L12.8981 15.5944L12.2283 16.2651C11.6152 16.879 11.5463 16.9357 11.415 16.9352C11.1336 16.9339 11.1518 16.8908 11.6403 16.4037C12.1923 15.8533 12.1628 15.9775 12.0057 14.8675C11.8915 14.0601 11.8661 13.9716 11.7318 13.9118C11.5562 13.8336 9.97594 13.6329 9.86411 13.6746C9.80705 13.6958 9.55565 13.9167 9.30544 14.1655L8.85044 14.6177L8.83169 14.4187L8.81298 14.2196L9.47049 13.5537L10.128 12.8877L10.8538 12.8991L11.5797 12.9104L12.8552 11.6454C17.1415 7.39444 18.0471 6.48814 18.1129 6.38407C18.1782 6.28049 18.1837 6.19566 18.1638 5.59423L18.1416 4.92038L18.811 4.25004C19.3881 3.6721 19.4973 3.58012 19.6034 3.58257C19.6711 3.58416 19.7586 3.59821 19.798 3.61377ZM4.1239 6.10633C3.73408 6.29201 3.71546 6.32689 3.71546 6.8704V7.33362L3.53166 7.52142L3.34786 7.70926L2.90948 7.6986C2.5255 7.68929 2.45709 7.69811 2.35808 7.7698C2.18886 7.89225 2 8.29624 2 8.53571C2 8.72935 2.00658 8.73964 2.32545 9.04536L2.65089 9.35737L2.65302 9.62376L2.65518 9.89014L2.32757 10.201C2.00486 10.5071 2 10.5147 2.00029 10.7115C2.00049 10.8497 2.03966 10.994 2.12747 11.1796C2.30163 11.5481 2.41277 11.6003 2.94007 11.5616L3.32674 11.5332L3.52958 11.7328L3.73241 11.9324L3.7079 12.345C3.6769 12.8665 3.72436 12.9665 4.08306 13.1357C4.58246 13.3713 4.68731 13.348 5.09559 12.9112L5.3806 12.6063H5.64768H5.91472L6.1943 12.9097C6.60082 13.3509 6.73029 13.3754 7.25796 13.111C7.55151 12.9638 7.58406 12.8887 7.57838 12.3718L7.57356 11.931L7.77456 11.733L7.97559 11.5349L8.37787 11.562C8.74179 11.5865 8.79309 11.581 8.91603 11.5041C9.09256 11.3938 9.2907 10.9712 9.2907 10.7052C9.2907 10.524 9.27979 10.5073 8.96394 10.2069L8.63719 9.89615L8.6367 9.62764L8.63625 9.35917L8.96345 9.05181C9.28343 8.75132 9.2907 8.74017 9.2907 8.55057C9.2907 8.30253 9.09681 7.86292 8.94295 7.76212C8.85072 7.70171 8.75617 7.69092 8.38841 7.69897L7.94504 7.70869L7.75928 7.51485L7.57352 7.32096L7.57834 6.88156C7.58259 6.49688 7.57254 6.4272 7.49796 6.32244C7.39287 6.17487 6.95245 5.98952 6.70689 5.98952C6.54319 5.98952 6.51696 6.00741 6.22738 6.31627L5.92101 6.64302H5.64866H5.37627L5.05515 6.31627C4.74874 6.00443 4.72574 5.98952 4.5515 5.98956C4.43513 5.98956 4.28013 6.03191 4.1239 6.10633ZM5.65605 7.29653H6.20545L6.49209 6.99004C6.89016 6.56444 6.92173 6.57367 6.92173 7.11543C6.92173 7.35278 6.93929 7.57983 6.96082 7.61998C7.01159 7.71482 7.5654 8.26863 7.66024 8.3194C7.70039 8.34092 7.92593 8.35848 8.16139 8.35848C8.46638 8.35848 8.59512 8.37319 8.60888 8.40954C8.6195 8.43764 8.48321 8.59844 8.30594 8.76693L7.98368 9.0733L7.98352 9.62465L7.98336 10.1761L8.30672 10.4857C8.72525 10.8866 8.71255 10.9153 8.12455 10.8966L7.69013 10.8827L7.30591 11.267L6.92173 11.6511V12.1039C6.92173 12.6807 6.89142 12.6992 6.55238 12.3286C6.41461 12.1781 6.26218 12.0325 6.21357 12.0053C6.15794 11.974 5.93645 11.955 5.61472 11.954L5.10416 11.9523L4.79301 12.2801C4.37938 12.7158 4.33531 12.7032 4.37276 12.1593C4.39249 11.8731 4.38575 11.7364 4.34858 11.6669C4.26559 11.5119 3.65329 10.933 3.54297 10.9053C3.48738 10.8914 3.27936 10.8892 3.0807 10.9005C2.5835 10.9289 2.571 10.8802 2.97757 10.499C3.14752 10.3397 3.28953 10.1834 3.29313 10.1518C3.29668 10.1202 3.30391 9.89218 3.30914 9.64508C3.32066 9.09829 3.29354 9.0307 2.93974 8.72608C2.79626 8.60253 2.68255 8.47387 2.68704 8.44017C2.69358 8.39104 2.78944 8.37486 3.17084 8.35848L3.64647 8.33806L3.99655 7.98145C4.18909 7.78532 4.35863 7.57693 4.37334 7.51836C4.388 7.45983 4.38759 7.25867 4.3724 7.0714C4.34883 6.78063 4.35451 6.72545 4.41124 6.69367C4.4634 6.66451 4.54529 6.72529 4.79219 6.97652L5.10665 7.29653H5.65605ZM5.2267 7.65028C4.20269 7.8697 3.49139 8.90094 3.6535 9.93099C3.81022 10.9267 4.64201 11.6347 5.65556 11.635C7.24297 11.6355 8.20052 9.87344 7.33806 8.53901C6.9551 7.94653 6.34182 7.6179 5.63792 7.62802C5.45669 7.63064 5.27162 7.64065 5.2267 7.65028ZM17.4384 7.92937C17.3714 7.95882 16.3801 8.92119 15.2356 10.0681C13.2925 12.015 13.1546 12.1626 13.1546 12.2942C13.1546 12.5489 13.3623 12.6894 13.5915 12.5898C13.7515 12.5203 17.8483 8.41697 17.8868 8.28766C17.9563 8.05428 17.6718 7.82694 17.4384 7.92937ZM6.20696 8.39398C7.00052 8.7733 7.25188 9.7402 6.7401 10.4448C6.093 11.3358 4.6657 11.0865 4.34364 10.0262C4.23394 9.66501 4.25922 9.37934 4.43232 9.02437C4.66778 8.54155 5.09236 8.2828 5.65556 8.27896C5.91129 8.2772 6.00241 8.29624 6.20696 8.39398ZM16.0096 13.35C15.8229 13.457 15.8284 13.3492 15.8271 16.9181C15.8257 20.6646 15.8326 20.5584 15.5676 20.9058C15.4828 21.0169 15.3402 21.1295 15.177 21.2139L14.9201 21.347H10.9245H6.92888L6.67189 21.2139C6.50876 21.1295 6.36609 21.0169 6.28133 20.9058C6.01695 20.5591 6.02316 20.6517 6.02316 17.049V13.7871L5.92289 13.6868C5.8597 13.6236 5.77597 13.5865 5.6964 13.5865C5.61684 13.5865 5.53311 13.6236 5.46992 13.6868L5.36965 13.7871V17.0887C5.36965 20.6305 5.36904 20.6187 5.5782 21.0287C5.69118 21.2502 6.03745 21.6139 6.25891 21.7436C6.35551 21.8002 6.5458 21.8812 6.68177 21.9235C6.91687 21.9967 7.12485 22.0004 10.9179 22C15.1779 21.9994 15.0947 22.0032 15.4972 21.7973C15.7429 21.6717 16.1156 21.3092 16.2468 21.0681C16.4826 20.635 16.4793 20.6931 16.4793 16.9904C16.4793 14.5856 16.466 13.5613 16.4339 13.4908C16.3902 13.3948 16.2419 13.2993 16.1404 13.3019C16.1134 13.3026 16.0545 13.3242 16.0096 13.35ZM10.472 20.1593C10.4064 20.225 10.3526 20.3183 10.3526 20.3667C10.3526 20.4151 10.4064 20.5084 10.472 20.5741L10.5914 20.6934H11.1683C11.7262 20.6934 11.7483 20.6902 11.8453 20.5932C11.9085 20.53 11.9456 20.4463 11.9456 20.3667C11.9456 20.2871 11.9085 20.2034 11.8453 20.1402C11.7483 20.0432 11.7262 20.0399 11.1683 20.0399H10.5914L10.472 20.1593Z" fill="#555555"/>
</svg>
