<svg width="24" height="24" viewBox="0 0 24 24" fill="none" xmlns="http://www.w3.org/2000/svg">
<path fill-rule="evenodd" clip-rule="evenodd" d="M6.36196 2.04383C5.67426 2.21212 5.09993 2.77578 4.92264 3.4564C4.87076 3.65562 4.86279 4.2285 4.86279 7.76426V11.8423L4.57408 11.9739C3.88005 12.2902 3.31565 12.7625 3.11174 13.1977C2.96271 13.5157 2.96275 13.9149 3.11186 14.235C3.31456 14.6701 3.82395 15.0981 4.51923 15.4175L4.85966 15.5738L4.86123 17.9406C4.86255 19.936 4.87217 20.3433 4.92264 20.5371C5.10787 21.2483 5.72684 21.8281 6.44609 21.9643C6.6156 21.9964 8.05749 22.0055 11.6456 21.997L16.6105 21.9852L16.845 21.8917C17.3387 21.6949 17.6786 21.3965 17.9156 20.9517C18.1456 20.5202 18.1531 20.4244 18.1556 17.8804L18.1578 15.5738L18.4982 15.4175C19.1932 15.0982 19.7024 14.6705 19.906 14.235C19.9907 14.0537 20.0112 13.953 20.0114 13.7161C20.0116 13.4629 19.9939 13.3861 19.8843 13.1635C19.6665 12.7209 19.1296 12.2816 18.4047 11.953L18.1576 11.8409L18.1464 10.5081L18.1351 9.17516L18.0258 9.08114C17.9656 9.02941 17.8748 8.97664 17.8238 8.96385C17.699 8.9325 17.4724 9.04529 17.4173 9.16616C17.3853 9.23642 17.3728 10.0753 17.3728 12.1512V15.0384L17.1057 15.1196C15.5521 15.5915 13.778 15.8071 11.4696 15.8045C9.19352 15.8019 7.47789 15.5901 5.90804 15.1177L5.64365 15.0381L5.65393 9.32465L5.66421 3.61113L5.76922 3.41215C5.88591 3.19095 6.07133 3.01132 6.32013 2.87836L6.48518 2.79016H11.4892H16.4932L16.6749 2.87418C16.907 2.98145 17.1349 3.20948 17.2567 3.4564C17.3502 3.64589 17.3529 3.67673 17.3724 4.83629L17.3923 6.02232L17.502 6.11661C17.7063 6.29218 18.0268 6.21412 18.1126 5.9679C18.1786 5.77861 18.1665 3.8688 18.0972 3.54194C17.9579 2.88446 17.4855 2.3425 16.8352 2.09414L16.6105 2.00829L11.5869 2.00141C7.65835 1.99601 6.51947 2.00528 6.36196 2.04383ZM10.3108 3.74765C10.0791 3.84112 10.0267 4.18753 10.2156 4.37647L10.3299 4.49074H11.4686C12.7044 4.49074 12.777 4.47964 12.8694 4.27682C12.9608 4.07623 12.8949 3.85762 12.715 3.76458C12.6288 3.72001 12.3857 3.70938 11.5009 3.71133C10.8924 3.7127 10.3569 3.72904 10.3108 3.74765ZM11.2547 6.17674C11.0521 6.28534 7.99455 8.00586 7.90683 8.06067C7.76206 8.15106 7.75569 8.24547 7.7571 10.2882C7.75819 11.872 7.76929 12.3094 7.81015 12.3831C7.87887 12.5071 11.3264 14.4556 11.4814 14.4579C11.6189 14.4601 11.5386 14.502 13.4439 13.4336C14.3254 12.9392 15.0907 12.4925 15.1445 12.4408L15.2422 12.3468V10.2768C15.2422 8.24207 15.2408 8.20547 15.162 8.12666C15.0278 7.99241 11.6156 6.09359 11.5086 6.09359C11.4543 6.09359 11.34 6.131 11.2547 6.17674ZM12.769 7.64209C13.4412 8.02076 14.0042 8.34258 14.0202 8.35724C14.0362 8.37194 13.477 8.7056 12.7776 9.09877L11.506 9.81356L10.2342 9.10158C9.46581 8.67139 8.97663 8.37549 8.99825 8.35387C9.0597 8.29242 11.4475 6.95651 11.4984 6.95502C11.525 6.95428 12.0968 7.26347 12.769 7.64209ZM17.5832 7.2501C17.3484 7.36597 17.3003 7.66903 17.4871 7.85582C17.6965 8.06521 18.0347 7.98276 18.1183 7.70191C18.1741 7.51469 18.1177 7.36855 17.9504 7.26656C17.7975 7.17336 17.7437 7.17094 17.5832 7.2501ZM9.86273 9.78795L11.1162 10.4916L11.117 11.9498L11.1178 13.408L10.8545 13.2607C10.7098 13.1798 10.1336 12.8558 9.57421 12.5408L8.55715 11.9681L8.54691 10.513C8.54065 9.62911 8.5509 9.06307 8.57295 9.07109C8.59292 9.07832 9.17335 9.40092 9.86273 9.78795ZM14.4799 10.5075V11.9503L13.2777 12.6253C12.6165 12.9966 12.036 13.3257 11.9876 13.3567L11.8997 13.4131V11.9509V10.4887L13.1604 9.77806C13.8539 9.3872 14.4344 9.06683 14.4505 9.06608C14.4667 9.06534 14.4799 9.71399 14.4799 10.5075ZM4.86279 13.6973C4.86279 14.4428 4.85102 14.6942 4.81619 14.6942C4.71767 14.6942 4.20844 14.3573 4.01528 14.1643C3.67551 13.8249 3.69877 13.5401 4.0953 13.1836C4.24397 13.0499 4.78628 12.7045 4.85302 12.7009C4.85841 12.7007 4.86279 13.149 4.86279 13.6973ZM18.8996 13.1629C19.1444 13.3771 19.2656 13.6015 19.2357 13.7856C19.195 14.0361 18.8928 14.3289 18.3795 14.6154L18.1547 14.7408V13.7179V12.6949L18.4291 12.8432C18.5801 12.9247 18.7918 13.0686 18.8996 13.1629ZM6.02794 15.9609C8.15429 16.5484 11.2235 16.7538 13.9521 16.4913C14.9881 16.3916 16.2861 16.1665 16.9892 15.9646C17.176 15.9109 17.3387 15.867 17.3508 15.867C17.3629 15.867 17.3728 16.3684 17.3728 16.9812V18.0954H11.5087H5.64466V16.9812C5.64466 16.3684 5.6544 15.867 5.66632 15.867C5.67825 15.867 5.84095 15.9093 6.02794 15.9609ZM17.3653 19.6103C17.3516 20.2902 17.3437 20.3573 17.2558 20.5371C17.1357 20.7829 16.9314 20.9877 16.6856 21.1086L16.4932 21.2033H11.4892H6.48518L6.32013 21.1151C6.0713 20.9822 5.88591 20.8025 5.76922 20.5814C5.6675 20.3885 5.66382 20.3589 5.65147 19.6298L5.63868 18.8773H11.5094H17.3801L17.3653 19.6103ZM10.6008 19.7201C10.4699 19.7911 10.4141 19.8897 10.4141 20.0501C10.4141 20.2136 10.4711 20.3107 10.6088 20.382C10.6998 20.429 10.8862 20.441 11.5257 20.441H12.3284L12.4552 20.3277C12.5602 20.234 12.5821 20.1861 12.5821 20.0501C12.5821 19.914 12.5602 19.8662 12.4552 19.7724L12.3284 19.6591L11.5179 19.6607C10.8789 19.6619 10.6848 19.6745 10.6008 19.7201Z" fill="#555555"/>
</svg>
