<svg width="25" height="24" viewBox="0 0 25 24" fill="none" xmlns="http://www.w3.org/2000/svg">
<g clip-path="url(#clip0_34_9908)">
<path d="M24.307 14.9019C22.7037 21.3339 16.1871 25.2439 9.76425 23.6405C3.33206 22.0371 -0.577872 15.5208 1.02553 9.09805C2.62885 2.66605 9.13603 -1.24389 15.5682 0.359519C21.991 1.95346 25.9104 8.46983 24.307 14.9019Z" fill="url(#paint0_linear_34_9908)"/>
<path d="M18.3801 10.5045C18.6145 8.91074 17.4051 8.04824 15.7363 7.47637L16.2801 5.31074L14.9676 4.98262L14.4426 7.09199C14.0957 7.00762 13.7395 6.92324 13.3832 6.84824L13.9082 4.72949L12.5957 4.40137L12.0613 6.55762C11.7707 6.49199 11.4895 6.42637 11.2176 6.36074V6.35137L9.39883 5.90137L9.05195 7.30762C9.05195 7.30762 10.027 7.53262 10.0082 7.54199C10.5426 7.67324 10.6363 8.02949 10.6176 8.31074L9.99883 10.7764C10.0363 10.7857 10.0832 10.7951 10.1395 10.8232C10.0926 10.8139 10.0457 10.8045 9.99883 10.7857L9.13633 14.2357C9.0707 14.3951 8.90195 14.6389 8.53633 14.5451C8.5457 14.5639 7.58008 14.3107 7.58008 14.3107L6.92383 15.8201L8.63945 16.2514C8.9582 16.3357 9.26758 16.4107 9.57695 16.4951L9.0332 18.6795L10.3457 19.0076L10.8895 16.842C11.2457 16.9357 11.602 17.0295 11.9395 17.1139L11.4051 19.2701L12.7176 19.5982L13.2613 17.4139C15.5113 17.8357 17.1988 17.667 17.902 15.6326C18.4738 14.0014 17.8738 13.0545 16.6926 12.4357C17.5645 12.2389 18.2113 11.667 18.3801 10.5045ZM15.3707 14.7232C14.9676 16.3545 12.2113 15.4732 11.3207 15.2482L12.0426 12.3514C12.9332 12.5764 15.802 13.017 15.3707 14.7232ZM15.7832 10.4764C15.4082 11.967 13.1207 11.2076 12.3801 11.0201L13.0363 8.39512C13.777 8.58262 16.1676 8.92949 15.7832 10.4764Z" fill="white"/>
</g>
<defs>
<linearGradient id="paint0_linear_34_9908" x1="1200.02" y1="-0.575999" x2="1200.02" y2="2399.76" gradientUnits="userSpaceOnUse">
<stop stop-color="#F9AA4B"/>
<stop offset="1" stop-color="#F7931A"/>
</linearGradient>
<clipPath id="clip0_34_9908">
<rect width="24" height="24" fill="white" transform="translate(0.666016)"/>
</clipPath>
</defs>
</svg>
