<svg width="24" height="24" viewBox="0 0 24 24" fill="none" xmlns="http://www.w3.org/2000/svg">
<path d="M10.8251 6.51931C10.9303 6.46936 11.0454 6.44347 11.1619 6.44354H16.0483C16.627 6.44354 17.1667 6.48109 17.6599 6.56026C17.7979 6.5822 17.9352 6.6084 18.0716 6.63882C18.2649 6.68136 18.4559 6.73342 18.6441 6.79481C18.8865 6.87557 19.1123 6.96962 19.3199 7.07975C19.5645 5.52339 19.3181 4.46499 18.4743 3.50622C17.5451 2.45061 15.8669 1.99805 13.7193 1.99805H7.48593C7.04706 1.99805 6.6737 2.31668 6.60492 2.74871L4.00966 19.163C3.95808 19.4872 4.20941 19.7799 4.53785 19.7799H8.38634L10.3913 7.10022C10.411 6.97559 10.4608 6.8576 10.5364 6.75641C10.6119 6.65522 10.711 6.57385 10.8251 6.51931Z" fill="#27346A"/>
<path d="M18.4599 6.73969C18.3318 6.70238 18.2024 6.66935 18.0721 6.64066C17.9357 6.61074 17.7984 6.58472 17.6604 6.56263C17.1667 6.48293 16.6274 6.44531 16.0482 6.44531H11.1624C11.0458 6.44505 10.9306 6.47116 10.8256 6.52168C10.7114 6.57606 10.6122 6.65737 10.5366 6.7586C10.461 6.85982 10.4113 6.97789 10.3917 7.10259L9.35323 13.6693L9.32324 13.8607C9.39156 13.4286 9.76212 13.1099 10.201 13.1099H12.0301C15.6222 13.1099 18.4349 11.6548 19.2565 7.44562C19.281 7.32113 19.3015 7.2005 19.3204 7.08159C19.1123 6.97206 18.8871 6.87741 18.6446 6.79718C18.5834 6.77695 18.5218 6.75778 18.4599 6.73969" fill="#1F264F"/>
<path d="M18.4743 3.50622C17.5456 2.45061 15.8669 1.99805 13.7193 1.99805H7.48646C7.27398 1.99805 7.06847 2.07365 6.90688 2.21125C6.74529 2.34885 6.63822 2.53943 6.60492 2.74871L4.00966 19.1636C3.95808 19.4872 4.20941 19.7804 4.53838 19.7804H8.38634L9.35273 13.6674L9.32273 13.8589C9.39158 13.4268 9.76214 13.1081 10.2009 13.1081H12.0295C15.6217 13.1081 18.4344 11.653 19.256 7.44378C19.2804 7.31929 19.3015 7.19813 19.3198 7.07975C19.2161 7.02498 19.2161 7.02498 19.3198 7.07975C19.5645 5.52399 19.3181 4.46499 18.4743 3.50622Z" fill="#27346A"/>
<path d="M19.2595 7.44216C18.4378 11.6508 15.6252 13.1064 12.033 13.1064H10.2039C9.76507 13.1064 9.39444 13.4251 9.32626 13.8572L8.12401 21.4579C8.07909 21.7412 8.29876 21.9979 8.58614 21.9979H11.8299C12.0157 21.9978 12.1954 21.9317 12.3367 21.8113C12.4779 21.6909 12.5715 21.5242 12.6005 21.3412L12.6321 21.1764L13.2435 17.3123L13.2829 17.0988C13.3119 16.9157 13.4054 16.7491 13.5467 16.6287C13.688 16.5083 13.8676 16.4422 14.0534 16.4421H14.5389C17.6811 16.4421 20.1415 15.169 20.8605 11.4871C21.1607 9.94838 21.0054 8.66373 20.2115 7.76139C19.9707 7.48809 19.6716 7.26237 19.3233 7.07812C19.3044 7.1971 19.2839 7.31767 19.2595 7.44216Z" fill="#2790C3"/>
</svg>
