<svg width="162" height="160" viewBox="0 0 162 160" fill="none" xmlns="http://www.w3.org/2000/svg">
<path d="M129.547 119.237L7.8816 159.718C6.91491 160.04 5.87711 160.088 4.88477 159.855C3.89244 159.622 2.98487 159.119 2.26401 158.401C1.54315 157.683 1.03755 156.78 0.80401 155.792C0.570465 154.804 0.618224 153.77 0.94192 152.808L41.5968 31.6626L129.547 119.237Z" fill="#FDC70E"/>
<path d="M129.549 119.242C129.549 119.242 111.63 115.201 78.6613 82.3408C46.5666 50.4132 41.8276 32.6039 41.6016 31.6737V31.6411C41.6016 31.6411 59.5527 35.6846 92.5325 68.5235C125.512 101.362 129.549 119.242 129.549 119.242Z" fill="#D39518"/>
<path d="M50.9249 145.393L32.8948 151.387C29.109 148.024 25.0781 144.254 20.7749 139.969C16.4716 135.685 12.6858 131.671 9.30859 127.901L15.3277 109.948C19.9033 115.453 25.4867 121.61 32.3501 128.444C39.2135 135.278 45.396 140.837 50.9249 145.393Z" fill="#2167D8"/>
<path d="M100.003 129.068L80.6379 135.495C69.9878 127.878 60.027 119.348 50.8692 110.003C41.484 100.884 32.9175 90.9661 25.2676 80.3615L31.7225 61.0796C40.4218 74.7257 50.7364 87.2816 62.4444 98.4772C73.6881 110.135 86.2979 120.406 100.003 129.068Z" fill="#D3374E"/>
<path d="M67.4623 55.3464C66.9237 55.3463 66.3972 55.1872 65.9494 54.8892C65.5016 54.5912 65.1526 54.1677 64.9465 53.6722C64.7405 53.1768 64.6865 52.6316 64.7916 52.1056C64.8966 51.5796 65.1559 51.0964 65.5367 50.7172C70.8611 45.715 74.3776 39.102 75.5399 31.9055C76.7022 24.7089 75.4453 17.3316 71.9643 10.9194C71.7558 10.6139 71.6121 10.2691 71.5422 9.90624C71.4722 9.5434 71.4775 9.17015 71.5576 8.8094C71.6377 8.44865 71.791 8.108 72.0081 7.80837C72.2252 7.50874 72.5015 7.25643 72.8201 7.06694C73.1386 6.87745 73.4927 6.75477 73.8605 6.70642C74.2284 6.65808 74.6023 6.68509 74.9593 6.7858C75.3163 6.8865 75.6489 7.05879 75.9366 7.29207C76.2243 7.52536 76.4612 7.81473 76.6325 8.14242C80.7164 15.5976 82.2198 24.1849 80.9102 32.5763C79.6007 40.9677 75.5512 48.6957 69.3878 54.5654C69.1345 54.8156 68.8339 55.0135 68.5034 55.1475C68.173 55.2816 67.8191 55.3492 67.4623 55.3464Z" fill="#2167D8"/>
<path d="M62.907 28.1187C62.1848 28.1186 61.4921 27.8328 60.9815 27.3241L56.4222 22.7871C56.1693 22.5351 55.9688 22.236 55.832 21.9069C55.6952 21.5777 55.6249 21.225 55.625 20.8688C55.6251 20.5125 55.6957 20.1598 55.8327 19.8308C55.9697 19.5018 56.1705 19.2028 56.4236 18.951C56.9346 18.4425 57.6276 18.157 58.3501 18.1572C58.7078 18.1574 59.062 18.2276 59.3925 18.3641C59.723 18.5005 60.0232 18.7004 60.2761 18.9524L64.8326 23.4894C65.2134 23.8687 65.4727 24.3519 65.5777 24.8779C65.6828 25.4039 65.6288 25.9491 65.4227 26.4445C65.2167 26.94 64.8677 27.3635 64.4199 27.6615C63.9721 27.9595 63.4456 28.1186 62.907 28.1187Z" fill="#23AF6F"/>
<path d="M94.8095 23.5811C94.0872 23.5811 93.3944 23.2953 92.8837 22.7868C92.3729 22.2782 92.0859 21.5884 92.0859 20.8691V16.3321C92.0859 15.6128 92.3729 14.923 92.8837 14.4144C93.3944 13.9058 94.0872 13.6201 94.8095 13.6201C95.5319 13.6201 96.2246 13.9058 96.7354 14.4144C97.2461 14.923 97.5331 15.6128 97.5331 16.3321V20.8691C97.5331 21.5884 97.2461 22.2782 96.7354 22.7868C96.2246 23.2953 95.5319 23.5811 94.8095 23.5811Z" fill="#D3374E"/>
<path d="M99.3688 41.7354H94.8095C94.0872 41.7354 93.3944 41.4497 92.8837 40.9411C92.3729 40.4325 92.0859 39.7427 92.0859 39.0235C92.0859 38.3042 92.3729 37.6144 92.8837 37.1058C93.3944 36.5972 94.0872 36.3115 94.8095 36.3115H99.3688C100.091 36.3115 100.784 36.5972 101.295 37.1058C101.805 37.6144 102.092 38.3042 102.092 39.0235C102.092 39.7427 101.805 40.4325 101.295 40.9411C100.784 41.4497 100.091 41.7354 99.3688 41.7354Z" fill="#23AF6F"/>
<path d="M108.483 96.1909C107.944 96.1908 107.418 96.0317 106.97 95.7337C106.522 95.4357 106.173 95.0122 105.967 94.5167C105.761 94.0212 105.707 93.476 105.812 92.95C105.917 92.4241 106.176 91.9409 106.557 91.5616C112.453 85.4244 120.214 81.3921 128.642 80.0881C137.07 78.7842 145.695 80.2812 153.182 84.3479C153.777 84.7287 154.2 85.3252 154.361 86.011C154.522 86.6967 154.409 87.4181 154.046 88.0223C153.683 88.6266 153.097 89.0664 152.414 89.2486C151.731 89.4309 151.003 89.3413 150.385 88.9988C143.961 85.4685 136.535 84.1804 129.29 85.3398C122.045 86.4992 115.398 90.0393 110.408 95.3963C109.898 95.9049 109.205 96.1907 108.483 96.1909Z" fill="#2167D8"/>
<path d="M140.387 105.265C139.665 105.266 138.973 104.981 138.462 104.473L133.902 99.9334C133.406 99.4219 133.132 98.7368 133.138 98.0258C133.144 97.3147 133.43 96.6345 133.935 96.1317C134.44 95.6289 135.124 95.3437 135.838 95.3375C136.552 95.3313 137.24 95.6047 137.753 96.0987L142.313 100.636C142.693 101.015 142.953 101.498 143.058 102.024C143.163 102.55 143.109 103.095 142.903 103.591C142.697 104.086 142.348 104.51 141.9 104.808C141.452 105.106 140.926 105.265 140.387 105.265Z" fill="#23AF6F"/>
<path d="M144.943 68.962H140.39C139.667 68.962 138.975 68.6762 138.464 68.1677C137.953 67.6591 137.666 66.9693 137.666 66.25C137.666 65.5308 137.953 64.841 138.464 64.3324C138.975 63.8238 139.667 63.5381 140.39 63.5381H144.943C145.666 63.5381 146.359 63.8238 146.869 64.3324C147.38 64.841 147.667 65.5308 147.667 66.25C147.667 66.9693 147.38 67.6591 146.869 68.1677C146.359 68.6762 145.666 68.962 144.943 68.962Z" fill="#D3374E"/>
<path d="M122.155 68.9627C121.433 68.9627 120.74 68.677 120.229 68.1684C119.719 67.6598 119.432 66.97 119.432 66.2507V61.711C119.432 60.9917 119.719 60.3019 120.229 59.7933C120.74 59.2847 121.433 58.999 122.155 58.999C122.878 58.999 123.57 59.2847 124.081 59.7933C124.592 60.3019 124.879 60.9917 124.879 61.711V66.2507C124.879 66.97 124.592 67.6598 124.081 68.1684C123.57 68.677 122.878 68.9627 122.155 68.9627Z" fill="#D3374E"/>
<path d="M99.3685 59.8862C98.8299 59.8861 98.3034 59.727 97.8557 59.429C97.4079 59.131 97.0589 58.7075 96.8528 58.212C96.6467 57.7166 96.5928 57.1714 96.6978 56.6454C96.8029 56.1194 97.0622 55.6362 97.4429 55.257C98.5931 54.1456 99.9722 53.2964 101.485 52.7682C102.997 52.24 104.607 52.0454 106.202 52.1979H106.262C107.129 52.3398 108.017 52.281 108.857 52.0261C109.697 51.7712 110.467 51.327 111.107 50.728C111.714 50.0823 112.163 49.3059 112.419 48.4592C112.675 47.6125 112.731 46.7184 112.583 45.8465C112.407 44.2558 112.592 42.646 113.125 41.136C113.657 39.6261 114.524 38.2545 115.66 37.1226C116.796 35.9907 118.173 35.1274 119.69 34.5965C121.206 34.0655 122.822 33.8805 124.42 34.055C125.3 34.2312 126.21 34.1881 127.07 33.9295C127.929 33.6709 128.711 33.2049 129.345 32.5728C129.98 31.9408 130.448 31.1623 130.708 30.3067C130.968 29.451 131.011 28.5447 130.834 27.6684C130.682 26.0784 130.879 24.4746 131.411 22.9678C131.943 21.461 132.797 20.0872 133.914 18.9414C134.165 18.6773 134.466 18.466 134.801 18.3201C135.135 18.1741 135.495 18.0966 135.86 18.092C136.225 18.0874 136.587 18.1559 136.925 18.2934C137.262 18.4308 137.569 18.6345 137.826 18.8922C138.083 19.15 138.286 19.4565 138.422 19.7938C138.558 20.131 138.624 20.4919 138.617 20.8552C138.61 21.2185 138.53 21.5767 138.382 21.9085C138.233 22.2404 138.019 22.5391 137.752 22.7869C137.145 23.4329 136.696 24.2091 136.439 25.0555C136.181 25.9019 136.123 26.7959 136.268 27.6684C136.443 29.2599 136.258 30.8703 135.724 32.3808C135.191 33.8913 134.324 35.2633 133.187 36.3954C132.05 37.5276 130.672 38.3909 129.155 38.9218C127.638 39.4527 126.021 39.6375 124.423 39.4626C123.545 39.2868 122.637 39.33 121.779 39.5884C120.922 39.8468 120.143 40.3124 119.51 40.9436C118.878 41.5749 118.412 42.3522 118.154 43.2062C117.896 44.0603 117.855 44.9645 118.033 45.8384C118.188 47.4271 117.993 49.0301 117.462 50.5363C116.932 52.0424 116.078 53.4154 114.961 54.56C113.806 55.6648 112.427 56.5096 110.915 57.0374C109.404 57.5652 107.797 57.7635 106.202 57.6191H106.139C105.273 57.4763 104.385 57.5347 103.545 57.7897C102.705 58.0446 101.936 58.4893 101.297 59.0889C101.044 59.3416 100.743 59.5421 100.412 59.6789C100.082 59.8157 99.7268 59.8862 99.3685 59.8862Z" fill="#FDC70E"/>
<path d="M108.481 28.1183C108.034 28.1185 107.593 28.0089 107.198 27.7991C106.803 27.5893 106.466 27.2859 106.217 26.9156C105.968 26.5453 105.814 26.1196 105.77 25.6762C105.725 25.2327 105.791 24.7852 105.962 24.3732C107.408 21.1722 108.166 17.7052 108.186 14.1951C108.205 10.6851 107.487 7.20978 106.076 3.99294C105.735 3.35856 105.661 2.6153 105.871 1.92667C106.08 1.23805 106.556 0.660459 107.193 0.320973C107.83 -0.0185134 108.576 -0.0920892 109.268 0.116432C109.96 0.324952 110.54 0.798489 110.881 1.43287C112.669 5.35729 113.605 9.61389 113.625 13.9235C113.646 18.2331 112.751 22.4984 111 26.4397C110.795 26.9365 110.446 27.3614 109.997 27.6602C109.549 27.9591 109.021 28.1186 108.481 28.1183Z" fill="#D3374E"/>
<path d="M135.822 55.3462C135.191 55.3468 134.579 55.1293 134.092 54.7307C133.604 54.3321 133.27 53.7772 133.148 53.1608C133.025 52.5444 133.121 51.9048 133.42 51.3512C133.718 50.7976 134.201 50.3645 134.784 50.1257C138.743 48.3803 143.027 47.4886 147.356 47.5091C151.685 47.5297 155.96 48.4621 159.901 50.245C160.538 50.5845 161.014 51.1621 161.223 51.8507C161.433 52.5394 161.359 53.2826 161.018 53.917C160.677 54.5514 160.097 55.0249 159.405 55.2334C158.714 55.442 157.967 55.3684 157.33 55.0289C154.099 53.6231 150.609 52.907 147.083 52.9266C143.557 52.9462 140.075 53.7012 136.86 55.1428C136.53 55.2771 136.178 55.3461 135.822 55.3462Z" fill="#D3374E"/>
</svg>
