<svg width="1194" height="558" viewBox="0 0 1194 558" fill="none" xmlns="http://www.w3.org/2000/svg">
<path d="M32 363C32 359.835 31.0616 356.742 29.3035 354.111C27.5454 351.48 25.0466 349.429 22.1229 348.218C19.1993 347.007 15.9823 346.69 12.8786 347.307C9.77486 347.925 6.92393 349.449 4.68629 351.686C2.44865 353.924 0.924799 356.775 0.307435 359.879C-0.309928 362.982 0.00692538 366.199 1.21793 369.123C2.42893 372.047 4.47969 374.545 7.11088 376.304C9.74206 378.062 12.8355 379 16 379V363H32Z" fill="#F777BA" fill-opacity="0.35"/>
<path d="M993 78C993 74.8355 992.062 71.7421 990.304 69.1109C988.545 66.4797 986.047 64.4289 983.123 63.2179C980.199 62.0069 976.982 61.6901 973.879 62.3074C970.775 62.9248 967.924 64.4487 965.686 66.6863C963.449 68.9239 961.925 71.7749 961.307 74.8786C960.69 77.9823 961.007 81.1993 962.218 84.1229C963.429 87.0466 965.48 89.5454 968.111 91.3035C970.742 93.0616 973.835 94 977 94V78H993Z" fill="#A654E3" fill-opacity="0.35"/>
<circle cx="1178" cy="542" r="16" fill="#FFD600" fill-opacity="0.35"/>
<circle cx="330" cy="16" r="16" fill="#FFD600" fill-opacity="0.35"/>
</svg>
